<mxfile host="app.diagrams.net" modified="2023-12-17T00:37:18.827Z" agent="Mozilla/5.0 (Windows NT 10.0; Win64; x64) AppleWebKit/537.36 (KHTML, like Gecko) Chrome/120.0.0.0 Safari/537.36" etag="tc_Ek7FJtcepmC65rif5" version="22.1.11" type="device">
  <diagram name="Page-1" id="mGdBJF7gGOK67KwVaq3J">
    <mxGraphModel dx="3600" dy="780" grid="1" gridSize="10" guides="1" tooltips="1" connect="1" arrows="1" fold="1" page="1" pageScale="1" pageWidth="827" pageHeight="1169" math="0" shadow="0">
      <root>
        <mxCell id="0" />
        <mxCell id="1" parent="0" />
        <mxCell id="CQ-1AIOBtnm9xRJfX0xp-5" value="&lt;font style=&quot;font-size: 18px;&quot;&gt;&lt;b&gt;plane&lt;/b&gt;&lt;/font&gt;" style="whiteSpace=wrap;html=1;align=center;fillColor=#99FFFF;" parent="1" vertex="1">
          <mxGeometry x="-531.9300000000001" y="581.86" width="110" height="30" as="geometry" />
        </mxCell>
        <mxCell id="CQ-1AIOBtnm9xRJfX0xp-7" value="&lt;font style=&quot;font-size: 18px;&quot;&gt;&lt;b&gt;flight&lt;/b&gt;&lt;/font&gt;" style="shape=ext;margin=3;double=1;whiteSpace=wrap;html=1;align=center;fillColor=#99FFFF;" parent="1" vertex="1">
          <mxGeometry x="68.07" y="597.14" width="110" height="34.72" as="geometry" />
        </mxCell>
        <mxCell id="CQ-1AIOBtnm9xRJfX0xp-8" value="&lt;font style=&quot;font-size: 18px;&quot;&gt;&lt;b&gt;passenger&lt;/b&gt;&lt;/font&gt;" style="whiteSpace=wrap;html=1;align=center;fillColor=#99FFFF;" parent="1" vertex="1">
          <mxGeometry x="-489.43" y="373.11" width="110" height="30" as="geometry" />
        </mxCell>
        <mxCell id="CQ-1AIOBtnm9xRJfX0xp-9" value="&lt;font style=&quot;font-size: 18px;&quot;&gt;&lt;b&gt;airline&lt;/b&gt;&lt;/font&gt;" style="whiteSpace=wrap;html=1;align=center;fillColor=#99FFFF;" parent="1" vertex="1">
          <mxGeometry x="-534.4300000000001" y="820.61" width="110" height="30" as="geometry" />
        </mxCell>
        <mxCell id="CQ-1AIOBtnm9xRJfX0xp-11" value="no" style="ellipse;whiteSpace=wrap;html=1;align=center;fontStyle=4;fillColor=#0066CC;" parent="1" vertex="1">
          <mxGeometry x="68.07" y="560.0500000000001" width="37.5" height="21.81" as="geometry" />
        </mxCell>
        <mxCell id="CQ-1AIOBtnm9xRJfX0xp-14" value="" style="endArrow=none;html=1;rounded=0;exitX=0.5;exitY=1;exitDx=0;exitDy=0;entryX=0.25;entryY=0;entryDx=0;entryDy=0;" parent="1" source="CQ-1AIOBtnm9xRJfX0xp-11" target="CQ-1AIOBtnm9xRJfX0xp-7" edge="1">
          <mxGeometry relative="1" as="geometry">
            <mxPoint x="-21.930000000000007" y="577.14" as="sourcePoint" />
            <mxPoint x="128.07" y="587.14" as="targetPoint" />
          </mxGeometry>
        </mxCell>
        <mxCell id="CQ-1AIOBtnm9xRJfX0xp-18" value="from" style="ellipse;whiteSpace=wrap;html=1;align=center;" parent="1" vertex="1">
          <mxGeometry x="133.07" y="554.47" width="32.5" height="21.25" as="geometry" />
        </mxCell>
        <mxCell id="CQ-1AIOBtnm9xRJfX0xp-19" value="to" style="ellipse;whiteSpace=wrap;html=1;align=center;" parent="1" vertex="1">
          <mxGeometry x="169.07" y="557.9" width="30" height="20" as="geometry" />
        </mxCell>
        <mxCell id="CQ-1AIOBtnm9xRJfX0xp-20" value="departure" style="ellipse;whiteSpace=wrap;html=1;align=center;" parent="1" vertex="1">
          <mxGeometry x="202.57000000000005" y="589.19" width="60" height="28.75" as="geometry" />
        </mxCell>
        <mxCell id="CQ-1AIOBtnm9xRJfX0xp-21" value="arrival" style="ellipse;whiteSpace=wrap;html=1;align=center;" parent="1" vertex="1">
          <mxGeometry x="222.57000000000005" y="558.11" width="50" height="28.75" as="geometry" />
        </mxCell>
        <mxCell id="CQ-1AIOBtnm9xRJfX0xp-22" value="" style="endArrow=none;html=1;rounded=0;exitX=0.5;exitY=1;exitDx=0;exitDy=0;entryX=0.806;entryY=-0.01;entryDx=0;entryDy=0;entryPerimeter=0;" parent="1" source="CQ-1AIOBtnm9xRJfX0xp-18" target="CQ-1AIOBtnm9xRJfX0xp-7" edge="1">
          <mxGeometry relative="1" as="geometry">
            <mxPoint x="18.069999999999993" y="577.14" as="sourcePoint" />
            <mxPoint x="128.07" y="587.14" as="targetPoint" />
          </mxGeometry>
        </mxCell>
        <mxCell id="CQ-1AIOBtnm9xRJfX0xp-23" value="" style="endArrow=none;html=1;rounded=0;exitX=0.5;exitY=1;exitDx=0;exitDy=0;entryX=0.915;entryY=0.032;entryDx=0;entryDy=0;entryPerimeter=0;" parent="1" source="CQ-1AIOBtnm9xRJfX0xp-19" target="CQ-1AIOBtnm9xRJfX0xp-7" edge="1">
          <mxGeometry relative="1" as="geometry">
            <mxPoint x="-21.930000000000007" y="577.14" as="sourcePoint" />
            <mxPoint x="163.07" y="601.86" as="targetPoint" />
          </mxGeometry>
        </mxCell>
        <mxCell id="CQ-1AIOBtnm9xRJfX0xp-25" value="" style="endArrow=none;html=1;rounded=0;exitX=0;exitY=0.5;exitDx=0;exitDy=0;entryX=0.994;entryY=0.661;entryDx=0;entryDy=0;entryPerimeter=0;" parent="1" source="CQ-1AIOBtnm9xRJfX0xp-20" target="CQ-1AIOBtnm9xRJfX0xp-7" edge="1">
          <mxGeometry relative="1" as="geometry">
            <mxPoint x="-21.930000000000007" y="577.14" as="sourcePoint" />
            <mxPoint x="128.07" y="587.14" as="targetPoint" />
          </mxGeometry>
        </mxCell>
        <mxCell id="CQ-1AIOBtnm9xRJfX0xp-26" value="" style="endArrow=none;html=1;rounded=0;entryX=0;entryY=0.5;entryDx=0;entryDy=0;exitX=1;exitY=0.5;exitDx=0;exitDy=0;" parent="1" source="CQ-1AIOBtnm9xRJfX0xp-7" target="CQ-1AIOBtnm9xRJfX0xp-21" edge="1">
          <mxGeometry relative="1" as="geometry">
            <mxPoint x="128.07" y="587.14" as="sourcePoint" />
            <mxPoint x="138.07" y="577.14" as="targetPoint" />
          </mxGeometry>
        </mxCell>
        <mxCell id="CQ-1AIOBtnm9xRJfX0xp-34" value="id" style="ellipse;whiteSpace=wrap;html=1;align=center;fontStyle=4;fillColor=#0066CC;" parent="1" vertex="1">
          <mxGeometry x="-578.75" y="604.49" width="36.93" height="19.5" as="geometry" />
        </mxCell>
        <mxCell id="CQ-1AIOBtnm9xRJfX0xp-35" value="capacity" style="ellipse;whiteSpace=wrap;html=1;align=center;" parent="1" vertex="1">
          <mxGeometry x="-554.4300000000001" y="623.99" width="55" height="30" as="geometry" />
        </mxCell>
        <mxCell id="CQ-1AIOBtnm9xRJfX0xp-36" value="" style="endArrow=none;html=1;rounded=0;" parent="1" source="CQ-1AIOBtnm9xRJfX0xp-35" target="CQ-1AIOBtnm9xRJfX0xp-5" edge="1">
          <mxGeometry relative="1" as="geometry">
            <mxPoint x="-611.9300000000001" y="631.86" as="sourcePoint" />
            <mxPoint x="-451.93" y="631.86" as="targetPoint" />
          </mxGeometry>
        </mxCell>
        <mxCell id="CQ-1AIOBtnm9xRJfX0xp-37" value="" style="endArrow=none;html=1;rounded=0;" parent="1" source="CQ-1AIOBtnm9xRJfX0xp-34" target="CQ-1AIOBtnm9xRJfX0xp-5" edge="1">
          <mxGeometry relative="1" as="geometry">
            <mxPoint x="-331.93" y="661.86" as="sourcePoint" />
            <mxPoint x="-171.93" y="661.86" as="targetPoint" />
          </mxGeometry>
        </mxCell>
        <mxCell id="CQ-1AIOBtnm9xRJfX0xp-38" value="model" style="ellipse;whiteSpace=wrap;html=1;align=center;" parent="1" vertex="1">
          <mxGeometry x="-455.56" y="532.98" width="42.26" height="22.98" as="geometry" />
        </mxCell>
        <mxCell id="CQ-1AIOBtnm9xRJfX0xp-39" value="" style="endArrow=none;html=1;rounded=0;entryX=0.75;entryY=0;entryDx=0;entryDy=0;exitX=0.5;exitY=1;exitDx=0;exitDy=0;" parent="1" source="CQ-1AIOBtnm9xRJfX0xp-38" target="CQ-1AIOBtnm9xRJfX0xp-5" edge="1">
          <mxGeometry relative="1" as="geometry">
            <mxPoint x="-406" y="560" as="sourcePoint" />
            <mxPoint x="-171.93" y="661.86" as="targetPoint" />
          </mxGeometry>
        </mxCell>
        <mxCell id="Q-8Lo3NwFq9te02g_n_B-3" value="" style="endArrow=none;html=1;rounded=0;" parent="1" source="FFvwKBDB7ZzLKZkDQ3gr-149" target="CQ-1AIOBtnm9xRJfX0xp-9" edge="1">
          <mxGeometry relative="1" as="geometry">
            <mxPoint x="-556.8728245497011" y="901.6528245497009" as="sourcePoint" />
            <mxPoint x="-105.66000000000003" y="610.44" as="targetPoint" />
          </mxGeometry>
        </mxCell>
        <mxCell id="MmHkMcqonr4LT1Xg0ltj-2" value="passport-no" style="ellipse;whiteSpace=wrap;html=1;align=center;fontStyle=4;fillColor=#0066CC;" parent="1" vertex="1">
          <mxGeometry x="-600.2800000000001" y="333.11" width="80" height="30" as="geometry" />
        </mxCell>
        <mxCell id="MmHkMcqonr4LT1Xg0ltj-4" value="name" style="ellipse;whiteSpace=wrap;html=1;align=center;" parent="1" vertex="1">
          <mxGeometry x="-452.26" y="283.11" width="55" height="30" as="geometry" />
        </mxCell>
        <mxCell id="MmHkMcqonr4LT1Xg0ltj-5" value="country -code" style="ellipse;whiteSpace=wrap;html=1;align=center;" parent="1" vertex="1">
          <mxGeometry x="-584.4300000000001" y="290" width="85" height="30" as="geometry" />
        </mxCell>
        <mxCell id="MmHkMcqonr4LT1Xg0ltj-6" value="passport-type" style="ellipse;whiteSpace=wrap;html=1;align=center;" parent="1" vertex="1">
          <mxGeometry x="-356.93" y="303.11" width="65" height="30" as="geometry" />
        </mxCell>
        <mxCell id="MmHkMcqonr4LT1Xg0ltj-7" value="" style="endArrow=none;html=1;rounded=0;" parent="1" source="MmHkMcqonr4LT1Xg0ltj-2" target="CQ-1AIOBtnm9xRJfX0xp-8" edge="1">
          <mxGeometry relative="1" as="geometry">
            <mxPoint x="-479.43" y="427.61" as="sourcePoint" />
            <mxPoint x="-319.43" y="427.61" as="targetPoint" />
          </mxGeometry>
        </mxCell>
        <mxCell id="MmHkMcqonr4LT1Xg0ltj-8" value="" style="endArrow=none;html=1;rounded=0;" parent="1" source="MmHkMcqonr4LT1Xg0ltj-5" target="CQ-1AIOBtnm9xRJfX0xp-8" edge="1">
          <mxGeometry relative="1" as="geometry">
            <mxPoint x="-449.43" y="433.11" as="sourcePoint" />
            <mxPoint x="-289.43" y="433.11" as="targetPoint" />
          </mxGeometry>
        </mxCell>
        <mxCell id="MmHkMcqonr4LT1Xg0ltj-9" value="" style="endArrow=none;html=1;rounded=0;" parent="1" source="MmHkMcqonr4LT1Xg0ltj-4" target="CQ-1AIOBtnm9xRJfX0xp-8" edge="1">
          <mxGeometry relative="1" as="geometry">
            <mxPoint x="-449.43" y="452.11" as="sourcePoint" />
            <mxPoint x="-289.43" y="452.11" as="targetPoint" />
          </mxGeometry>
        </mxCell>
        <mxCell id="MmHkMcqonr4LT1Xg0ltj-10" value="" style="endArrow=none;html=1;rounded=0;" parent="1" source="MmHkMcqonr4LT1Xg0ltj-6" target="CQ-1AIOBtnm9xRJfX0xp-8" edge="1">
          <mxGeometry relative="1" as="geometry">
            <mxPoint x="-449.43" y="443.11" as="sourcePoint" />
            <mxPoint x="-289.43" y="443.11" as="targetPoint" />
          </mxGeometry>
        </mxCell>
        <mxCell id="MmHkMcqonr4LT1Xg0ltj-13" value="edate" style="ellipse;whiteSpace=wrap;html=1;align=center;" parent="1" vertex="1">
          <mxGeometry x="-346.93" y="341.67" width="55" height="30" as="geometry" />
        </mxCell>
        <mxCell id="MmHkMcqonr4LT1Xg0ltj-14" value="" style="endArrow=none;html=1;rounded=0;entryX=0;entryY=1;entryDx=0;entryDy=0;" parent="1" source="CQ-1AIOBtnm9xRJfX0xp-8" target="MmHkMcqonr4LT1Xg0ltj-13" edge="1">
          <mxGeometry relative="1" as="geometry">
            <mxPoint x="-389.43" y="433.11" as="sourcePoint" />
            <mxPoint x="-336.490656143271" y="360.4874330063933" as="targetPoint" />
          </mxGeometry>
        </mxCell>
        <mxCell id="MmHkMcqonr4LT1Xg0ltj-15" value="idate" style="ellipse;whiteSpace=wrap;html=1;align=center;" parent="1" vertex="1">
          <mxGeometry x="-570" y="374.49" width="62.74" height="30" as="geometry" />
        </mxCell>
        <mxCell id="MmHkMcqonr4LT1Xg0ltj-16" value="" style="endArrow=none;html=1;rounded=0;" parent="1" source="MmHkMcqonr4LT1Xg0ltj-15" target="CQ-1AIOBtnm9xRJfX0xp-8" edge="1">
          <mxGeometry relative="1" as="geometry">
            <mxPoint x="-389.43" y="423.11" as="sourcePoint" />
            <mxPoint x="-229.43" y="423.11" as="targetPoint" />
          </mxGeometry>
        </mxCell>
        <mxCell id="MmHkMcqonr4LT1Xg0ltj-18" value="gender" style="ellipse;whiteSpace=wrap;html=1;align=center;" parent="1" vertex="1">
          <mxGeometry x="-536.6899999999999" y="416.23" width="64.43" height="30" as="geometry" />
        </mxCell>
        <mxCell id="MmHkMcqonr4LT1Xg0ltj-19" value="" style="endArrow=none;html=1;rounded=0;" parent="1" source="MmHkMcqonr4LT1Xg0ltj-18" target="CQ-1AIOBtnm9xRJfX0xp-8" edge="1">
          <mxGeometry relative="1" as="geometry">
            <mxPoint x="-389.43" y="423.11" as="sourcePoint" />
            <mxPoint x="-229.43" y="423.11" as="targetPoint" />
          </mxGeometry>
        </mxCell>
        <mxCell id="MmHkMcqonr4LT1Xg0ltj-20" value="bdate" style="ellipse;whiteSpace=wrap;html=1;align=center;" parent="1" vertex="1">
          <mxGeometry x="-349.43" y="373.11" width="45" height="30" as="geometry" />
        </mxCell>
        <mxCell id="MmHkMcqonr4LT1Xg0ltj-21" value="" style="endArrow=none;html=1;rounded=0;" parent="1" source="CQ-1AIOBtnm9xRJfX0xp-8" target="MmHkMcqonr4LT1Xg0ltj-20" edge="1">
          <mxGeometry relative="1" as="geometry">
            <mxPoint x="-389.43" y="423.11" as="sourcePoint" />
            <mxPoint x="-229.43" y="423.11" as="targetPoint" />
          </mxGeometry>
        </mxCell>
        <mxCell id="MmHkMcqonr4LT1Xg0ltj-22" value="nationality" style="ellipse;whiteSpace=wrap;html=1;align=center;" parent="1" vertex="1">
          <mxGeometry x="-421.93" y="313.11" width="65" height="30" as="geometry" />
        </mxCell>
        <mxCell id="MmHkMcqonr4LT1Xg0ltj-23" value="" style="endArrow=none;html=1;rounded=0;" parent="1" source="MmHkMcqonr4LT1Xg0ltj-22" target="CQ-1AIOBtnm9xRJfX0xp-8" edge="1">
          <mxGeometry relative="1" as="geometry">
            <mxPoint x="-329.43" y="503.11" as="sourcePoint" />
            <mxPoint x="-169.43" y="503.11" as="targetPoint" />
          </mxGeometry>
        </mxCell>
        <mxCell id="MmHkMcqonr4LT1Xg0ltj-24" value="place of birth" style="ellipse;whiteSpace=wrap;html=1;align=center;" parent="1" vertex="1">
          <mxGeometry x="-503.96" y="313.11" width="70" height="30" as="geometry" />
        </mxCell>
        <mxCell id="MmHkMcqonr4LT1Xg0ltj-25" value="" style="endArrow=none;html=1;rounded=0;" parent="1" source="MmHkMcqonr4LT1Xg0ltj-24" target="CQ-1AIOBtnm9xRJfX0xp-8" edge="1">
          <mxGeometry relative="1" as="geometry">
            <mxPoint x="-329.43" y="503.11" as="sourcePoint" />
            <mxPoint x="-169.43" y="503.11" as="targetPoint" />
          </mxGeometry>
        </mxCell>
        <mxCell id="MmHkMcqonr4LT1Xg0ltj-28" value="fname" style="ellipse;whiteSpace=wrap;html=1;align=center;" parent="1" vertex="1">
          <mxGeometry x="-500.89" y="238.11" width="55" height="30" as="geometry" />
        </mxCell>
        <mxCell id="MmHkMcqonr4LT1Xg0ltj-29" value="minit" style="ellipse;whiteSpace=wrap;html=1;align=center;" parent="1" vertex="1">
          <mxGeometry x="-445.89" y="233.11" width="42.26" height="30" as="geometry" />
        </mxCell>
        <mxCell id="MmHkMcqonr4LT1Xg0ltj-30" value="lname" style="ellipse;whiteSpace=wrap;html=1;align=center;" parent="1" vertex="1">
          <mxGeometry x="-404.43" y="236.85000000000002" width="55" height="30" as="geometry" />
        </mxCell>
        <mxCell id="MmHkMcqonr4LT1Xg0ltj-32" style="edgeStyle=orthogonalEdgeStyle;rounded=0;orthogonalLoop=1;jettySize=auto;html=1;exitX=0.5;exitY=1;exitDx=0;exitDy=0;" parent="1" source="MmHkMcqonr4LT1Xg0ltj-30" target="MmHkMcqonr4LT1Xg0ltj-30" edge="1">
          <mxGeometry relative="1" as="geometry" />
        </mxCell>
        <mxCell id="MmHkMcqonr4LT1Xg0ltj-33" value="" style="endArrow=none;html=1;rounded=0;" parent="1" source="MmHkMcqonr4LT1Xg0ltj-4" target="MmHkMcqonr4LT1Xg0ltj-28" edge="1">
          <mxGeometry relative="1" as="geometry">
            <mxPoint x="-697.26" y="223.11" as="sourcePoint" />
            <mxPoint x="-537.26" y="223.11" as="targetPoint" />
          </mxGeometry>
        </mxCell>
        <mxCell id="MmHkMcqonr4LT1Xg0ltj-34" value="" style="endArrow=none;html=1;rounded=0;" parent="1" source="MmHkMcqonr4LT1Xg0ltj-29" target="MmHkMcqonr4LT1Xg0ltj-4" edge="1">
          <mxGeometry relative="1" as="geometry">
            <mxPoint x="-287.26" y="222.11" as="sourcePoint" />
            <mxPoint x="-127.25999999999999" y="222.11" as="targetPoint" />
          </mxGeometry>
        </mxCell>
        <mxCell id="MmHkMcqonr4LT1Xg0ltj-35" value="" style="endArrow=none;html=1;rounded=0;" parent="1" source="MmHkMcqonr4LT1Xg0ltj-30" target="MmHkMcqonr4LT1Xg0ltj-4" edge="1">
          <mxGeometry relative="1" as="geometry">
            <mxPoint x="-247.26" y="207.61" as="sourcePoint" />
            <mxPoint x="-87.25999999999999" y="207.61" as="targetPoint" />
          </mxGeometry>
        </mxCell>
        <mxCell id="FFvwKBDB7ZzLKZkDQ3gr-3" value="base-airport" style="ellipse;whiteSpace=wrap;html=1;align=center;" parent="1" vertex="1">
          <mxGeometry x="-433.96000000000004" y="872.94" width="73.73" height="30" as="geometry" />
        </mxCell>
        <mxCell id="FFvwKBDB7ZzLKZkDQ3gr-4" value="" style="endArrow=none;html=1;rounded=0;" parent="1" source="FFvwKBDB7ZzLKZkDQ3gr-3" target="CQ-1AIOBtnm9xRJfX0xp-9" edge="1">
          <mxGeometry relative="1" as="geometry">
            <mxPoint x="-435.66" y="570.44" as="sourcePoint" />
            <mxPoint x="-275.65999999999997" y="570.44" as="targetPoint" />
          </mxGeometry>
        </mxCell>
        <mxCell id="FFvwKBDB7ZzLKZkDQ3gr-5" value="&lt;font style=&quot;font-size: 18px;&quot;&gt;&lt;b&gt;ticket&lt;/b&gt;&lt;/font&gt;" style="whiteSpace=wrap;html=1;align=center;fillColor=#99FFFF;" parent="1" vertex="1">
          <mxGeometry x="-237.93" y="418.11" width="110" height="30" as="geometry" />
        </mxCell>
        <mxCell id="FFvwKBDB7ZzLKZkDQ3gr-6" value="no" style="ellipse;whiteSpace=wrap;html=1;align=center;fontStyle=4;fillColor=#0066CC;" parent="1" vertex="1">
          <mxGeometry x="-204.18" y="368.38" width="42.5" height="30" as="geometry" />
        </mxCell>
        <mxCell id="FFvwKBDB7ZzLKZkDQ3gr-7" value="" style="endArrow=none;html=1;rounded=0;exitX=0.25;exitY=0;exitDx=0;exitDy=0;" parent="1" source="FFvwKBDB7ZzLKZkDQ3gr-5" target="FFvwKBDB7ZzLKZkDQ3gr-6" edge="1">
          <mxGeometry relative="1" as="geometry">
            <mxPoint x="-347.93" y="738.11" as="sourcePoint" />
            <mxPoint x="-187.93" y="738.11" as="targetPoint" />
          </mxGeometry>
        </mxCell>
        <mxCell id="FFvwKBDB7ZzLKZkDQ3gr-18" value="class" style="ellipse;whiteSpace=wrap;html=1;align=center;" parent="1" vertex="1">
          <mxGeometry x="-160.93" y="373.38" width="45" height="30" as="geometry" />
        </mxCell>
        <mxCell id="FFvwKBDB7ZzLKZkDQ3gr-19" value="" style="endArrow=none;html=1;rounded=0;exitX=0.5;exitY=1;exitDx=0;exitDy=0;" parent="1" source="FFvwKBDB7ZzLKZkDQ3gr-18" target="FFvwKBDB7ZzLKZkDQ3gr-5" edge="1">
          <mxGeometry relative="1" as="geometry">
            <mxPoint x="-134.29498136679257" y="411.28482525894367" as="sourcePoint" />
            <mxPoint x="-167.93" y="538.11" as="targetPoint" />
          </mxGeometry>
        </mxCell>
        <mxCell id="FFvwKBDB7ZzLKZkDQ3gr-20" value="price" style="ellipse;whiteSpace=wrap;html=1;align=center;" parent="1" vertex="1">
          <mxGeometry x="-254.43" y="369.76" width="52.5" height="34.73" as="geometry" />
        </mxCell>
        <mxCell id="FFvwKBDB7ZzLKZkDQ3gr-21" value="" style="endArrow=none;html=1;rounded=0;entryX=0;entryY=0;entryDx=0;entryDy=0;" parent="1" source="FFvwKBDB7ZzLKZkDQ3gr-20" target="FFvwKBDB7ZzLKZkDQ3gr-5" edge="1">
          <mxGeometry relative="1" as="geometry">
            <mxPoint x="-327.93" y="538.11" as="sourcePoint" />
            <mxPoint x="-167.93" y="538.11" as="targetPoint" />
          </mxGeometry>
        </mxCell>
        <mxCell id="FFvwKBDB7ZzLKZkDQ3gr-67" value="book" style="shape=rhombus;perimeter=rhombusPerimeter;whiteSpace=wrap;html=1;align=center;fillColor=#BFFFD5;" parent="1" vertex="1">
          <mxGeometry x="-277.93" y="468.11" width="90" height="30" as="geometry" />
        </mxCell>
        <mxCell id="FFvwKBDB7ZzLKZkDQ3gr-68" value="" style="endArrow=none;html=1;rounded=0;entryX=0;entryY=0.5;entryDx=0;entryDy=0;exitX=1;exitY=1;exitDx=0;exitDy=0;" parent="1" source="CQ-1AIOBtnm9xRJfX0xp-8" target="FFvwKBDB7ZzLKZkDQ3gr-67" edge="1">
          <mxGeometry relative="1" as="geometry">
            <mxPoint x="-371.93" y="481.86" as="sourcePoint" />
            <mxPoint x="-211.93" y="481.86" as="targetPoint" />
          </mxGeometry>
        </mxCell>
        <mxCell id="FFvwKBDB7ZzLKZkDQ3gr-75" value="1-1" style="edgeLabel;html=1;align=center;verticalAlign=middle;resizable=0;points=[];" parent="FFvwKBDB7ZzLKZkDQ3gr-68" vertex="1" connectable="0">
          <mxGeometry x="-0.7565" y="-2" relative="1" as="geometry">
            <mxPoint as="offset" />
          </mxGeometry>
        </mxCell>
        <mxCell id="FFvwKBDB7ZzLKZkDQ3gr-70" value="" style="endArrow=none;html=1;rounded=0;entryX=0.477;entryY=0.016;entryDx=0;entryDy=0;exitX=0.377;exitY=0.985;exitDx=0;exitDy=0;exitPerimeter=0;entryPerimeter=0;" parent="1" source="FFvwKBDB7ZzLKZkDQ3gr-5" target="FFvwKBDB7ZzLKZkDQ3gr-67" edge="1">
          <mxGeometry relative="1" as="geometry">
            <mxPoint x="-292.93" y="427.44" as="sourcePoint" />
            <mxPoint x="-132.93" y="427.44" as="targetPoint" />
          </mxGeometry>
        </mxCell>
        <mxCell id="FFvwKBDB7ZzLKZkDQ3gr-74" value="1-n" style="edgeLabel;html=1;align=center;verticalAlign=middle;resizable=0;points=[];" parent="FFvwKBDB7ZzLKZkDQ3gr-70" vertex="1" connectable="0">
          <mxGeometry x="-0.6872" y="-1" relative="1" as="geometry">
            <mxPoint x="-11" y="7" as="offset" />
          </mxGeometry>
        </mxCell>
        <mxCell id="FFvwKBDB7ZzLKZkDQ3gr-72" value="" style="endArrow=none;html=1;rounded=0;entryX=1;entryY=0.5;entryDx=0;entryDy=0;exitX=0;exitY=0;exitDx=0;exitDy=0;" parent="1" source="CQ-1AIOBtnm9xRJfX0xp-7" target="FFvwKBDB7ZzLKZkDQ3gr-67" edge="1">
          <mxGeometry relative="1" as="geometry">
            <mxPoint x="-371.93" y="481.86" as="sourcePoint" />
            <mxPoint x="-211.93" y="481.86" as="targetPoint" />
          </mxGeometry>
        </mxCell>
        <mxCell id="FFvwKBDB7ZzLKZkDQ3gr-76" value="1-1" style="edgeLabel;html=1;align=center;verticalAlign=middle;resizable=0;points=[];" parent="FFvwKBDB7ZzLKZkDQ3gr-72" vertex="1" connectable="0">
          <mxGeometry x="-0.4618" y="-3" relative="1" as="geometry">
            <mxPoint x="14" y="9" as="offset" />
          </mxGeometry>
        </mxCell>
        <mxCell id="FFvwKBDB7ZzLKZkDQ3gr-91" value="own" style="shape=rhombus;perimeter=rhombusPerimeter;whiteSpace=wrap;html=1;align=center;fillColor=#BFFFD5;" parent="1" vertex="1">
          <mxGeometry x="-499.43" y="720.86" width="40" height="30" as="geometry" />
        </mxCell>
        <mxCell id="FFvwKBDB7ZzLKZkDQ3gr-92" value="" style="endArrow=none;html=1;rounded=0;entryX=0.5;entryY=0;entryDx=0;entryDy=0;exitX=0.5;exitY=1;exitDx=0;exitDy=0;" parent="1" source="CQ-1AIOBtnm9xRJfX0xp-5" target="FFvwKBDB7ZzLKZkDQ3gr-91" edge="1">
          <mxGeometry relative="1" as="geometry">
            <mxPoint x="-391.93" y="701.86" as="sourcePoint" />
            <mxPoint x="-231.93" y="701.86" as="targetPoint" />
          </mxGeometry>
        </mxCell>
        <mxCell id="tR4aqdJXtH1gXFBSBeib-6" value="1..m" style="edgeLabel;html=1;align=center;verticalAlign=middle;resizable=0;points=[];" parent="FFvwKBDB7ZzLKZkDQ3gr-92" vertex="1" connectable="0">
          <mxGeometry x="-0.6358" y="-1" relative="1" as="geometry">
            <mxPoint as="offset" />
          </mxGeometry>
        </mxCell>
        <mxCell id="FFvwKBDB7ZzLKZkDQ3gr-94" value="" style="endArrow=none;html=1;rounded=0;entryX=0.5;entryY=1;entryDx=0;entryDy=0;exitX=0.5;exitY=0;exitDx=0;exitDy=0;" parent="1" source="CQ-1AIOBtnm9xRJfX0xp-9" target="FFvwKBDB7ZzLKZkDQ3gr-91" edge="1">
          <mxGeometry relative="1" as="geometry">
            <mxPoint x="-486.93" y="891.86" as="sourcePoint" />
            <mxPoint x="-231.93" y="701.86" as="targetPoint" />
          </mxGeometry>
        </mxCell>
        <mxCell id="FFvwKBDB7ZzLKZkDQ3gr-98" value="1-1" style="edgeLabel;html=1;align=center;verticalAlign=middle;resizable=0;points=[];" parent="FFvwKBDB7ZzLKZkDQ3gr-94" vertex="1" connectable="0">
          <mxGeometry x="0.1378" y="-2" relative="1" as="geometry">
            <mxPoint x="-3" y="-19" as="offset" />
          </mxGeometry>
        </mxCell>
        <mxCell id="FFvwKBDB7ZzLKZkDQ3gr-102" value="" style="endArrow=none;html=1;rounded=0;" parent="1" source="FFvwKBDB7ZzLKZkDQ3gr-148" target="CQ-1AIOBtnm9xRJfX0xp-9" edge="1">
          <mxGeometry relative="1" as="geometry">
            <mxPoint x="-614.2952446409062" y="875.5744786398232" as="sourcePoint" />
            <mxPoint x="-265.66" y="630.44" as="targetPoint" />
          </mxGeometry>
        </mxCell>
        <mxCell id="FFvwKBDB7ZzLKZkDQ3gr-105" value="on-board" style="shape=rhombus;perimeter=rhombusPerimeter;whiteSpace=wrap;html=1;align=center;fillColor=#BFFFD5;" parent="1" vertex="1">
          <mxGeometry x="-281.93" y="576.86" width="80" height="35" as="geometry" />
        </mxCell>
        <mxCell id="FFvwKBDB7ZzLKZkDQ3gr-106" value="" style="endArrow=none;html=1;rounded=0;entryX=0;entryY=0.5;entryDx=0;entryDy=0;exitX=1;exitY=0.5;exitDx=0;exitDy=0;" parent="1" source="CQ-1AIOBtnm9xRJfX0xp-5" target="FFvwKBDB7ZzLKZkDQ3gr-105" edge="1">
          <mxGeometry relative="1" as="geometry">
            <mxPoint x="-271.93" y="671.86" as="sourcePoint" />
            <mxPoint x="-111.93" y="671.86" as="targetPoint" />
          </mxGeometry>
        </mxCell>
        <mxCell id="FFvwKBDB7ZzLKZkDQ3gr-110" value="1-1" style="edgeLabel;html=1;align=center;verticalAlign=middle;resizable=0;points=[];" parent="FFvwKBDB7ZzLKZkDQ3gr-106" vertex="1" connectable="0">
          <mxGeometry x="-0.7022" y="-1" relative="1" as="geometry">
            <mxPoint as="offset" />
          </mxGeometry>
        </mxCell>
        <mxCell id="FFvwKBDB7ZzLKZkDQ3gr-108" value="" style="endArrow=none;html=1;rounded=0;entryX=1;entryY=0.5;entryDx=0;entryDy=0;exitX=0;exitY=0.25;exitDx=0;exitDy=0;" parent="1" source="CQ-1AIOBtnm9xRJfX0xp-7" target="FFvwKBDB7ZzLKZkDQ3gr-105" edge="1">
          <mxGeometry relative="1" as="geometry">
            <mxPoint x="-271.93" y="671.86" as="sourcePoint" />
            <mxPoint x="-111.93" y="671.86" as="targetPoint" />
            <Array as="points">
              <mxPoint x="-106.93" y="596.86" />
            </Array>
          </mxGeometry>
        </mxCell>
        <mxCell id="FFvwKBDB7ZzLKZkDQ3gr-111" value="1-n" style="edgeLabel;html=1;align=center;verticalAlign=middle;resizable=0;points=[];" parent="FFvwKBDB7ZzLKZkDQ3gr-108" vertex="1" connectable="0">
          <mxGeometry x="-0.6546" y="-1" relative="1" as="geometry">
            <mxPoint as="offset" />
          </mxGeometry>
        </mxCell>
        <mxCell id="FFvwKBDB7ZzLKZkDQ3gr-112" value="control" style="shape=rhombus;perimeter=rhombusPerimeter;whiteSpace=wrap;html=1;align=center;fillColor=#BFFFD5;" parent="1" vertex="1">
          <mxGeometry x="-190.93" y="838.48" width="75" height="30" as="geometry" />
        </mxCell>
        <mxCell id="FFvwKBDB7ZzLKZkDQ3gr-113" value="" style="endArrow=none;html=1;rounded=0;entryX=0;entryY=0.5;entryDx=0;entryDy=0;exitX=1;exitY=1;exitDx=0;exitDy=0;" parent="1" source="CQ-1AIOBtnm9xRJfX0xp-9" target="FFvwKBDB7ZzLKZkDQ3gr-112" edge="1">
          <mxGeometry relative="1" as="geometry">
            <mxPoint x="-271.93" y="731.86" as="sourcePoint" />
            <mxPoint x="-111.93" y="731.86" as="targetPoint" />
          </mxGeometry>
        </mxCell>
        <mxCell id="FFvwKBDB7ZzLKZkDQ3gr-118" value="1-1" style="edgeLabel;html=1;align=center;verticalAlign=middle;resizable=0;points=[];" parent="FFvwKBDB7ZzLKZkDQ3gr-113" vertex="1" connectable="0">
          <mxGeometry x="-0.4314" y="-2" relative="1" as="geometry">
            <mxPoint as="offset" />
          </mxGeometry>
        </mxCell>
        <mxCell id="FFvwKBDB7ZzLKZkDQ3gr-115" value="" style="endArrow=none;html=1;rounded=0;entryX=0.5;entryY=1;entryDx=0;entryDy=0;exitX=1;exitY=0.5;exitDx=0;exitDy=0;" parent="1" source="FFvwKBDB7ZzLKZkDQ3gr-112" target="CQ-1AIOBtnm9xRJfX0xp-7" edge="1">
          <mxGeometry relative="1" as="geometry">
            <mxPoint x="-271.93" y="731.86" as="sourcePoint" />
            <mxPoint x="-111.93" y="731.86" as="targetPoint" />
            <Array as="points">
              <mxPoint x="123.07" y="851.86" />
            </Array>
          </mxGeometry>
        </mxCell>
        <mxCell id="FFvwKBDB7ZzLKZkDQ3gr-119" value="n-m" style="edgeLabel;html=1;align=center;verticalAlign=middle;resizable=0;points=[];" parent="FFvwKBDB7ZzLKZkDQ3gr-115" vertex="1" connectable="0">
          <mxGeometry x="0.8489" y="2" relative="1" as="geometry">
            <mxPoint as="offset" />
          </mxGeometry>
        </mxCell>
        <mxCell id="FFvwKBDB7ZzLKZkDQ3gr-127" value="bo-date" style="ellipse;whiteSpace=wrap;html=1;align=center;" parent="1" vertex="1">
          <mxGeometry x="-310.43" y="503.11" width="45" height="20" as="geometry" />
        </mxCell>
        <mxCell id="FFvwKBDB7ZzLKZkDQ3gr-128" value="" style="endArrow=none;html=1;rounded=0;" parent="1" source="FFvwKBDB7ZzLKZkDQ3gr-127" target="FFvwKBDB7ZzLKZkDQ3gr-67" edge="1">
          <mxGeometry relative="1" as="geometry">
            <mxPoint x="-262.93" y="548.11" as="sourcePoint" />
            <mxPoint x="-102.93" y="548.11" as="targetPoint" />
          </mxGeometry>
        </mxCell>
        <mxCell id="FFvwKBDB7ZzLKZkDQ3gr-148" value="iata" style="ellipse;whiteSpace=wrap;html=1;align=center;" parent="1" vertex="1">
          <mxGeometry x="-526.13" y="870.94" width="43.3" height="30" as="geometry" />
        </mxCell>
        <mxCell id="FFvwKBDB7ZzLKZkDQ3gr-149" value="icao" style="ellipse;whiteSpace=wrap;html=1;align=center;fontStyle=4;fillColor=#0066CC;" parent="1" vertex="1">
          <mxGeometry x="-480.53000000000003" y="872.69" width="45" height="30" as="geometry" />
        </mxCell>
        <mxCell id="FFvwKBDB7ZzLKZkDQ3gr-162" value="work" style="shape=rhombus;perimeter=rhombusPerimeter;whiteSpace=wrap;html=1;align=center;fillColor=#BFFFD5;" parent="1" vertex="1">
          <mxGeometry x="-652.4300000000001" y="818.9000000000001" width="58" height="37.5" as="geometry" />
        </mxCell>
        <mxCell id="FFvwKBDB7ZzLKZkDQ3gr-167" value="" style="endArrow=none;html=1;rounded=0;entryX=0;entryY=0.5;entryDx=0;entryDy=0;exitX=1;exitY=0.5;exitDx=0;exitDy=0;" parent="1" source="FFvwKBDB7ZzLKZkDQ3gr-162" target="CQ-1AIOBtnm9xRJfX0xp-9" edge="1">
          <mxGeometry relative="1" as="geometry">
            <mxPoint x="-738.7585840596582" y="782.6806469274093" as="sourcePoint" />
            <mxPoint x="-459.76" y="711.69" as="targetPoint" />
          </mxGeometry>
        </mxCell>
        <mxCell id="FFvwKBDB7ZzLKZkDQ3gr-169" value="1-1" style="edgeLabel;html=1;align=center;verticalAlign=middle;resizable=0;points=[];" parent="FFvwKBDB7ZzLKZkDQ3gr-167" vertex="1" connectable="0">
          <mxGeometry x="0.5967" relative="1" as="geometry">
            <mxPoint as="offset" />
          </mxGeometry>
        </mxCell>
        <mxCell id="AVoEoT7fQAIIMKBGmIL9-3" value="weight" style="ellipse;whiteSpace=wrap;html=1;align=center;" parent="1" vertex="1">
          <mxGeometry x="-534.4300000000001" y="653.99" width="50" height="30" as="geometry" />
        </mxCell>
        <mxCell id="64KyMXc23cClE3a2vhsR-1" value="" style="endArrow=none;html=1;rounded=0;" parent="1" source="AVoEoT7fQAIIMKBGmIL9-3" target="CQ-1AIOBtnm9xRJfX0xp-5" edge="1">
          <mxGeometry relative="1" as="geometry">
            <mxPoint x="-605.9300000000001" y="639.86" as="sourcePoint" />
            <mxPoint x="-521.9300000000001" y="619.86" as="targetPoint" />
          </mxGeometry>
        </mxCell>
        <mxCell id="Z6PvU_8tH3VTfmL3WVzz-124" style="edgeStyle=orthogonalEdgeStyle;rounded=0;orthogonalLoop=1;jettySize=auto;html=1;entryX=0;entryY=0.5;entryDx=0;entryDy=0;" parent="1" source="k8y80EG09j7Mzg2zByGi-92" target="k8y80EG09j7Mzg2zByGi-106" edge="1">
          <mxGeometry relative="1" as="geometry" />
        </mxCell>
        <mxCell id="k8y80EG09j7Mzg2zByGi-92" value="&lt;font style=&quot;font-size: 18px;&quot;&gt;&lt;b&gt;Employee&lt;/b&gt;&lt;/font&gt;" style="rounded=0;arcSize=10;whiteSpace=wrap;html=1;align=center;fillColor=#99FFFF;" parent="1" vertex="1">
          <mxGeometry x="-1467.5" y="570.4399999999999" width="100" height="40" as="geometry" />
        </mxCell>
        <mxCell id="k8y80EG09j7Mzg2zByGi-93" value="BDate" style="ellipse;whiteSpace=wrap;html=1;align=center;" parent="1" vertex="1">
          <mxGeometry x="-1600" y="626.8599999999999" width="50" height="30" as="geometry" />
        </mxCell>
        <mxCell id="k8y80EG09j7Mzg2zByGi-94" value="Gender" style="ellipse;whiteSpace=wrap;html=1;align=center;" parent="1" vertex="1">
          <mxGeometry x="-1566.25" y="559.1899999999999" width="50" height="30" as="geometry" />
        </mxCell>
        <mxCell id="k8y80EG09j7Mzg2zByGi-95" value="Salary" style="ellipse;whiteSpace=wrap;html=1;align=center;" parent="1" vertex="1">
          <mxGeometry x="-1561.25" y="601.8599999999999" width="40" height="30" as="geometry" />
        </mxCell>
        <mxCell id="k8y80EG09j7Mzg2zByGi-96" value="SSN" style="ellipse;whiteSpace=wrap;html=1;align=center;fontStyle=4;fillColor=#0066CC;" parent="1" vertex="1">
          <mxGeometry x="-1403.7500000000002" y="665.72" width="50" height="25" as="geometry" />
        </mxCell>
        <mxCell id="k8y80EG09j7Mzg2zByGi-97" value="Name" style="ellipse;whiteSpace=wrap;html=1;align=center;" parent="1" vertex="1">
          <mxGeometry x="-1461.54" y="525.6099999999999" width="40" height="30" as="geometry" />
        </mxCell>
        <mxCell id="k8y80EG09j7Mzg2zByGi-100" value="&lt;b&gt;&lt;font style=&quot;font-size: 18px;&quot;&gt;Pilot&lt;/font&gt;&lt;/b&gt;" style="rounded=0;arcSize=10;whiteSpace=wrap;html=1;align=center;fillColor=#99FFFF;" parent="1" vertex="1">
          <mxGeometry x="-1126.75" y="843.11" width="90" height="32" as="geometry" />
        </mxCell>
        <mxCell id="Z6PvU_8tH3VTfmL3WVzz-123" style="edgeStyle=orthogonalEdgeStyle;rounded=0;orthogonalLoop=1;jettySize=auto;html=1;exitX=0.5;exitY=0;exitDx=0;exitDy=0;entryX=0;entryY=0.5;entryDx=0;entryDy=0;" parent="1" source="k8y80EG09j7Mzg2zByGi-106" target="k8y80EG09j7Mzg2zByGi-114" edge="1">
          <mxGeometry relative="1" as="geometry">
            <mxPoint x="-1110.12" y="330.715" as="targetPoint" />
          </mxGeometry>
        </mxCell>
        <mxCell id="Z6PvU_8tH3VTfmL3WVzz-126" style="edgeStyle=orthogonalEdgeStyle;rounded=0;orthogonalLoop=1;jettySize=auto;html=1;exitX=0.5;exitY=1;exitDx=0;exitDy=0;entryX=0;entryY=0.5;entryDx=0;entryDy=0;" parent="1" source="k8y80EG09j7Mzg2zByGi-106" target="k8y80EG09j7Mzg2zByGi-100" edge="1">
          <mxGeometry relative="1" as="geometry" />
        </mxCell>
        <mxCell id="Z6PvU_8tH3VTfmL3WVzz-127" style="edgeStyle=orthogonalEdgeStyle;rounded=0;orthogonalLoop=1;jettySize=auto;html=1;exitX=1;exitY=1;exitDx=0;exitDy=0;entryX=0;entryY=0.5;entryDx=0;entryDy=0;" parent="1" source="k8y80EG09j7Mzg2zByGi-106" target="k8y80EG09j7Mzg2zByGi-117" edge="1">
          <mxGeometry relative="1" as="geometry" />
        </mxCell>
        <mxCell id="Z6PvU_8tH3VTfmL3WVzz-128" style="edgeStyle=orthogonalEdgeStyle;rounded=0;orthogonalLoop=1;jettySize=auto;html=1;exitX=1;exitY=0;exitDx=0;exitDy=0;entryX=0;entryY=0.5;entryDx=0;entryDy=0;" parent="1" source="k8y80EG09j7Mzg2zByGi-106" target="k8y80EG09j7Mzg2zByGi-113" edge="1">
          <mxGeometry relative="1" as="geometry" />
        </mxCell>
        <mxCell id="k8y80EG09j7Mzg2zByGi-106" value="d" style="ellipse;whiteSpace=wrap;html=1;align=center;" parent="1" vertex="1">
          <mxGeometry x="-1290" y="575.7199999999999" width="30" height="30" as="geometry" />
        </mxCell>
        <mxCell id="k8y80EG09j7Mzg2zByGi-113" value="&lt;b&gt;&lt;font style=&quot;font-size: 18px;&quot;&gt;AME&lt;/font&gt;&lt;/b&gt;" style="rounded=0;arcSize=10;whiteSpace=wrap;html=1;align=center;fillColor=#99FFFF;" parent="1" vertex="1">
          <mxGeometry x="-1130.4299999999998" y="476.43999999999994" width="65" height="32.5" as="geometry" />
        </mxCell>
        <mxCell id="k8y80EG09j7Mzg2zByGi-114" value="&lt;b&gt;&lt;font style=&quot;font-size: 18px;&quot;&gt;mechanic&lt;/font&gt;&lt;/b&gt;" style="rounded=0;arcSize=10;whiteSpace=wrap;html=1;align=center;fillColor=#99FFFF;" parent="1" vertex="1">
          <mxGeometry x="-1163.3" y="308.38" width="97.87" height="41.25" as="geometry" />
        </mxCell>
        <mxCell id="k8y80EG09j7Mzg2zByGi-117" value="&lt;b&gt;&lt;font style=&quot;font-size: 18px;&quot;&gt;Flight Attendent&lt;/font&gt;&lt;/b&gt;" style="rounded=0;arcSize=10;whiteSpace=wrap;html=1;align=center;fillColor=#99FFFF;" parent="1" vertex="1">
          <mxGeometry x="-1145.75" y="711.86" width="110" height="44" as="geometry" />
        </mxCell>
        <mxCell id="k8y80EG09j7Mzg2zByGi-118" value="Phone" style="ellipse;shape=doubleEllipse;margin=3;whiteSpace=wrap;html=1;align=center;" parent="1" vertex="1">
          <mxGeometry x="-1611.25" y="575.7199999999999" width="50" height="40" as="geometry" />
        </mxCell>
        <mxCell id="k8y80EG09j7Mzg2zByGi-123" value="PPL" style="ellipse;whiteSpace=wrap;html=1;align=center;" parent="1" vertex="1">
          <mxGeometry x="-1078.25" y="900.94" width="60" height="29.06" as="geometry" />
        </mxCell>
        <mxCell id="k8y80EG09j7Mzg2zByGi-124" value="Education" style="ellipse;whiteSpace=wrap;html=1;align=center;" parent="1" vertex="1">
          <mxGeometry x="-1364.55" y="635.72" width="64.55" height="30" as="geometry" />
        </mxCell>
        <mxCell id="k8y80EG09j7Mzg2zByGi-125" value="Flight Hours" style="ellipse;whiteSpace=wrap;html=1;align=center;" parent="1" vertex="1">
          <mxGeometry x="-1147.62" y="902.94" width="60" height="36" as="geometry" />
        </mxCell>
        <mxCell id="k8y80EG09j7Mzg2zByGi-126" value="Certificate _No" style="ellipse;whiteSpace=wrap;html=1;align=center;" parent="1" vertex="1">
          <mxGeometry x="-1035.75" y="968.02" width="70" height="51.98" as="geometry" />
        </mxCell>
        <mxCell id="k8y80EG09j7Mzg2zByGi-127" value="Date of Issue" style="ellipse;whiteSpace=wrap;html=1;align=center;" parent="1" vertex="1">
          <mxGeometry x="-1110.12" y="969.44" width="55" height="50" as="geometry" />
        </mxCell>
        <mxCell id="k8y80EG09j7Mzg2zByGi-128" value="Language" style="ellipse;shape=doubleEllipse;margin=3;whiteSpace=wrap;html=1;align=center;fillColor=#FFFFFF;" parent="1" vertex="1">
          <mxGeometry x="-1125.12" y="769.36" width="70" height="40" as="geometry" />
        </mxCell>
        <mxCell id="k8y80EG09j7Mzg2zByGi-129" value="Flight Hours" style="ellipse;whiteSpace=wrap;html=1;align=center;" parent="1" vertex="1">
          <mxGeometry x="-1120.75" y="663.19" width="60" height="36" as="geometry" />
        </mxCell>
        <mxCell id="k8y80EG09j7Mzg2zByGi-134" value="IV in Aeroskills Certificate" style="ellipse;whiteSpace=wrap;html=1;align=center;" parent="1" vertex="1">
          <mxGeometry x="-1149.3" y="517.41" width="102.75" height="50" as="geometry" />
        </mxCell>
        <mxCell id="k8y80EG09j7Mzg2zByGi-135" value="Certificate No" style="ellipse;whiteSpace=wrap;html=1;align=center;" parent="1" vertex="1">
          <mxGeometry x="-1175.68" y="586.86" width="85.68" height="40" as="geometry" />
        </mxCell>
        <mxCell id="k8y80EG09j7Mzg2zByGi-136" value="Date of Issue&amp;nbsp;" style="ellipse;whiteSpace=wrap;html=1;align=center;" parent="1" vertex="1">
          <mxGeometry x="-1090" y="591.22" width="88.5" height="33.14" as="geometry" />
        </mxCell>
        <mxCell id="k8y80EG09j7Mzg2zByGi-142" value="Certificate No" style="ellipse;whiteSpace=wrap;html=1;align=center;" parent="1" vertex="1">
          <mxGeometry x="-1205.4299999999998" y="363.10999999999996" width="75" height="40" as="geometry" />
        </mxCell>
        <mxCell id="k8y80EG09j7Mzg2zByGi-143" value="Date of Issue&amp;nbsp;" style="ellipse;whiteSpace=wrap;html=1;align=center;" parent="1" vertex="1">
          <mxGeometry x="-1122.9299999999998" y="359.81999999999994" width="80" height="40" as="geometry" />
        </mxCell>
        <mxCell id="k8y80EG09j7Mzg2zByGi-157" value="Address" style="ellipse;whiteSpace=wrap;html=1;align=center;" parent="1" vertex="1">
          <mxGeometry x="-1510.54" y="645.86" width="60" height="25" as="geometry" />
        </mxCell>
        <mxCell id="k8y80EG09j7Mzg2zByGi-158" value="Zip code" style="ellipse;whiteSpace=wrap;html=1;align=center;" parent="1" vertex="1">
          <mxGeometry x="-1476.54" y="700.72" width="55" height="30" as="geometry" />
        </mxCell>
        <mxCell id="k8y80EG09j7Mzg2zByGi-160" value="Street" style="ellipse;whiteSpace=wrap;html=1;align=center;" parent="1" vertex="1">
          <mxGeometry x="-1539.9599999999998" y="700.7200000000001" width="65" height="30" as="geometry" />
        </mxCell>
        <mxCell id="k8y80EG09j7Mzg2zByGi-170" value="" style="endArrow=none;html=1;rounded=0;entryX=0;entryY=0.5;entryDx=0;entryDy=0;exitX=1;exitY=0;exitDx=0;exitDy=0;" parent="1" source="Z6PvU_8tH3VTfmL3WVzz-135" target="FFvwKBDB7ZzLKZkDQ3gr-162" edge="1">
          <mxGeometry relative="1" as="geometry">
            <mxPoint x="-852.64" y="849.3100000000001" as="sourcePoint" />
            <mxPoint x="-658.75" y="848.6900000000002" as="targetPoint" />
          </mxGeometry>
        </mxCell>
        <mxCell id="Z6PvU_8tH3VTfmL3WVzz-150" value="n..m" style="edgeLabel;html=1;align=center;verticalAlign=middle;resizable=0;points=[];" parent="k8y80EG09j7Mzg2zByGi-170" vertex="1" connectable="0">
          <mxGeometry x="-0.5737" y="1" relative="1" as="geometry">
            <mxPoint as="offset" />
          </mxGeometry>
        </mxCell>
        <mxCell id="Z6PvU_8tH3VTfmL3WVzz-1" value="" style="endArrow=none;html=1;rounded=0;entryX=0.5;entryY=0;entryDx=0;entryDy=0;exitX=0.75;exitY=1;exitDx=0;exitDy=0;" parent="1" source="k8y80EG09j7Mzg2zByGi-92" target="k8y80EG09j7Mzg2zByGi-124" edge="1">
          <mxGeometry relative="1" as="geometry">
            <mxPoint x="-1419.5" y="484.19" as="sourcePoint" />
            <mxPoint x="-1259.5" y="484.19" as="targetPoint" />
          </mxGeometry>
        </mxCell>
        <mxCell id="Z6PvU_8tH3VTfmL3WVzz-2" value="" style="endArrow=none;html=1;rounded=0;exitX=0;exitY=0.5;exitDx=0;exitDy=0;entryX=1;entryY=0.5;entryDx=0;entryDy=0;" parent="1" source="k8y80EG09j7Mzg2zByGi-92" target="k8y80EG09j7Mzg2zByGi-94" edge="1">
          <mxGeometry relative="1" as="geometry">
            <mxPoint x="-1419.5" y="484.19" as="sourcePoint" />
            <mxPoint x="-1259.5" y="484.19" as="targetPoint" />
          </mxGeometry>
        </mxCell>
        <mxCell id="Z6PvU_8tH3VTfmL3WVzz-4" value="" style="endArrow=none;html=1;rounded=0;exitX=0.25;exitY=0;exitDx=0;exitDy=0;entryX=0.5;entryY=1;entryDx=0;entryDy=0;" parent="1" source="k8y80EG09j7Mzg2zByGi-92" target="k8y80EG09j7Mzg2zByGi-97" edge="1">
          <mxGeometry relative="1" as="geometry">
            <mxPoint x="-1419.5" y="484.19" as="sourcePoint" />
            <mxPoint x="-1259.5" y="484.19" as="targetPoint" />
          </mxGeometry>
        </mxCell>
        <mxCell id="Z6PvU_8tH3VTfmL3WVzz-7" value="" style="endArrow=none;html=1;rounded=0;entryX=0.5;entryY=0;entryDx=0;entryDy=0;exitX=0;exitY=1;exitDx=0;exitDy=0;" parent="1" source="k8y80EG09j7Mzg2zByGi-92" target="k8y80EG09j7Mzg2zByGi-157" edge="1">
          <mxGeometry relative="1" as="geometry">
            <mxPoint x="-1519.5" y="534.1899999999999" as="sourcePoint" />
            <mxPoint x="-1359.5" y="534.1899999999999" as="targetPoint" />
          </mxGeometry>
        </mxCell>
        <mxCell id="Z6PvU_8tH3VTfmL3WVzz-9" value="" style="endArrow=none;html=1;rounded=0;exitX=0.5;exitY=0;exitDx=0;exitDy=0;entryX=1;entryY=1;entryDx=0;entryDy=0;" parent="1" source="k8y80EG09j7Mzg2zByGi-158" target="k8y80EG09j7Mzg2zByGi-157" edge="1">
          <mxGeometry relative="1" as="geometry">
            <mxPoint x="-1599.54" y="674.61" as="sourcePoint" />
            <mxPoint x="-1484.54" y="659.61" as="targetPoint" />
          </mxGeometry>
        </mxCell>
        <mxCell id="Z6PvU_8tH3VTfmL3WVzz-10" value="" style="endArrow=none;html=1;rounded=0;exitX=0.5;exitY=0;exitDx=0;exitDy=0;entryX=0.5;entryY=1;entryDx=0;entryDy=0;" parent="1" source="k8y80EG09j7Mzg2zByGi-160" target="k8y80EG09j7Mzg2zByGi-157" edge="1">
          <mxGeometry relative="1" as="geometry">
            <mxPoint x="-1599.54" y="674.61" as="sourcePoint" />
            <mxPoint x="-1484.54" y="659.61" as="targetPoint" />
          </mxGeometry>
        </mxCell>
        <mxCell id="Z6PvU_8tH3VTfmL3WVzz-11" value="" style="endArrow=none;html=1;rounded=0;exitX=1;exitY=0.5;exitDx=0;exitDy=0;entryX=0;entryY=0.75;entryDx=0;entryDy=0;" parent="1" source="k8y80EG09j7Mzg2zByGi-95" target="k8y80EG09j7Mzg2zByGi-92" edge="1">
          <mxGeometry relative="1" as="geometry">
            <mxPoint x="-1519.5" y="534.1899999999999" as="sourcePoint" />
            <mxPoint x="-1359.5" y="534.1899999999999" as="targetPoint" />
          </mxGeometry>
        </mxCell>
        <mxCell id="Z6PvU_8tH3VTfmL3WVzz-12" value="" style="endArrow=none;html=1;rounded=0;exitX=1;exitY=0.5;exitDx=0;exitDy=0;entryX=0;entryY=0.5;entryDx=0;entryDy=0;" parent="1" source="k8y80EG09j7Mzg2zByGi-118" target="k8y80EG09j7Mzg2zByGi-92" edge="1">
          <mxGeometry relative="1" as="geometry">
            <mxPoint x="-1519.5" y="564.1899999999999" as="sourcePoint" />
            <mxPoint x="-1359.5" y="564.1899999999999" as="targetPoint" />
          </mxGeometry>
        </mxCell>
        <mxCell id="Z6PvU_8tH3VTfmL3WVzz-13" value="" style="endArrow=none;html=1;rounded=0;exitX=1;exitY=0.5;exitDx=0;exitDy=0;entryX=0;entryY=0.75;entryDx=0;entryDy=0;" parent="1" source="k8y80EG09j7Mzg2zByGi-93" target="k8y80EG09j7Mzg2zByGi-92" edge="1">
          <mxGeometry relative="1" as="geometry">
            <mxPoint x="-1519.5" y="564.1899999999999" as="sourcePoint" />
            <mxPoint x="-1359.5" y="564.1899999999999" as="targetPoint" />
          </mxGeometry>
        </mxCell>
        <mxCell id="Z6PvU_8tH3VTfmL3WVzz-15" value="" style="endArrow=none;html=1;rounded=0;exitX=0.5;exitY=0;exitDx=0;exitDy=0;entryX=0.5;entryY=1;entryDx=0;entryDy=0;" parent="1" source="k8y80EG09j7Mzg2zByGi-142" target="k8y80EG09j7Mzg2zByGi-114" edge="1">
          <mxGeometry relative="1" as="geometry">
            <mxPoint x="-1194.8" y="400.37999999999994" as="sourcePoint" />
            <mxPoint x="-1119.7999999999997" y="408.38" as="targetPoint" />
          </mxGeometry>
        </mxCell>
        <mxCell id="Z6PvU_8tH3VTfmL3WVzz-16" value="" style="endArrow=none;html=1;rounded=0;exitX=0.5;exitY=1;exitDx=0;exitDy=0;entryX=0.5;entryY=0;entryDx=0;entryDy=0;" parent="1" source="k8y80EG09j7Mzg2zByGi-114" target="k8y80EG09j7Mzg2zByGi-143" edge="1">
          <mxGeometry relative="1" as="geometry">
            <mxPoint x="-1119.7999999999997" y="408.38" as="sourcePoint" />
            <mxPoint x="-1034.8" y="400.37999999999994" as="targetPoint" />
          </mxGeometry>
        </mxCell>
        <mxCell id="Z6PvU_8tH3VTfmL3WVzz-17" value="" style="endArrow=none;html=1;rounded=0;exitX=0.5;exitY=0;exitDx=0;exitDy=0;entryX=0.5;entryY=1;entryDx=0;entryDy=0;" parent="1" source="k8y80EG09j7Mzg2zByGi-136" target="k8y80EG09j7Mzg2zByGi-134" edge="1">
          <mxGeometry relative="1" as="geometry">
            <mxPoint x="-1180.4299999999998" y="562.13" as="sourcePoint" />
            <mxPoint x="-1020.43" y="562.13" as="targetPoint" />
          </mxGeometry>
        </mxCell>
        <mxCell id="Z6PvU_8tH3VTfmL3WVzz-18" value="" style="endArrow=none;html=1;rounded=0;exitX=0.5;exitY=0;exitDx=0;exitDy=0;entryX=0.5;entryY=1;entryDx=0;entryDy=0;" parent="1" source="k8y80EG09j7Mzg2zByGi-135" target="k8y80EG09j7Mzg2zByGi-134" edge="1">
          <mxGeometry relative="1" as="geometry">
            <mxPoint x="-1180.4299999999998" y="562.13" as="sourcePoint" />
            <mxPoint x="-1020.43" y="562.13" as="targetPoint" />
          </mxGeometry>
        </mxCell>
        <mxCell id="Z6PvU_8tH3VTfmL3WVzz-19" value="" style="endArrow=none;html=1;rounded=0;exitX=0.5;exitY=1;exitDx=0;exitDy=0;entryX=0.5;entryY=0;entryDx=0;entryDy=0;" parent="1" source="k8y80EG09j7Mzg2zByGi-113" target="k8y80EG09j7Mzg2zByGi-134" edge="1">
          <mxGeometry relative="1" as="geometry">
            <mxPoint x="-1168.1799999999998" y="579.91" as="sourcePoint" />
            <mxPoint x="-1008.18" y="579.91" as="targetPoint" />
          </mxGeometry>
        </mxCell>
        <mxCell id="Z6PvU_8tH3VTfmL3WVzz-20" value="" style="endArrow=none;html=1;rounded=0;exitX=0.5;exitY=0;exitDx=0;exitDy=0;entryX=0.5;entryY=1;entryDx=0;entryDy=0;" parent="1" source="k8y80EG09j7Mzg2zByGi-117" target="k8y80EG09j7Mzg2zByGi-129" edge="1">
          <mxGeometry relative="1" as="geometry">
            <mxPoint x="-1125.12" y="752.11" as="sourcePoint" />
            <mxPoint x="-965.1199999999998" y="752.11" as="targetPoint" />
          </mxGeometry>
        </mxCell>
        <mxCell id="Z6PvU_8tH3VTfmL3WVzz-21" value="" style="endArrow=none;html=1;rounded=0;entryX=0.5;entryY=0;entryDx=0;entryDy=0;exitX=0.5;exitY=1;exitDx=0;exitDy=0;" parent="1" source="k8y80EG09j7Mzg2zByGi-117" target="k8y80EG09j7Mzg2zByGi-128" edge="1">
          <mxGeometry relative="1" as="geometry">
            <mxPoint x="-1125.12" y="752.11" as="sourcePoint" />
            <mxPoint x="-965.1199999999998" y="752.11" as="targetPoint" />
          </mxGeometry>
        </mxCell>
        <mxCell id="Z6PvU_8tH3VTfmL3WVzz-22" value="" style="endArrow=none;html=1;rounded=0;exitX=0.5;exitY=0;exitDx=0;exitDy=0;entryX=0.5;entryY=1;entryDx=0;entryDy=0;" parent="1" source="k8y80EG09j7Mzg2zByGi-126" target="k8y80EG09j7Mzg2zByGi-123" edge="1">
          <mxGeometry relative="1" as="geometry">
            <mxPoint x="-1171.25" y="929.94" as="sourcePoint" />
            <mxPoint x="-1011.2499999999999" y="929.94" as="targetPoint" />
          </mxGeometry>
        </mxCell>
        <mxCell id="Z6PvU_8tH3VTfmL3WVzz-23" value="" style="endArrow=none;html=1;rounded=0;exitX=0.5;exitY=0;exitDx=0;exitDy=0;entryX=0.5;entryY=1;entryDx=0;entryDy=0;" parent="1" source="k8y80EG09j7Mzg2zByGi-127" target="k8y80EG09j7Mzg2zByGi-123" edge="1">
          <mxGeometry relative="1" as="geometry">
            <mxPoint x="-1171.25" y="929.94" as="sourcePoint" />
            <mxPoint x="-1011.2499999999999" y="929.94" as="targetPoint" />
          </mxGeometry>
        </mxCell>
        <mxCell id="Z6PvU_8tH3VTfmL3WVzz-24" value="" style="endArrow=none;html=1;rounded=0;entryX=0.5;entryY=1;entryDx=0;entryDy=0;exitX=0.5;exitY=0;exitDx=0;exitDy=0;" parent="1" source="k8y80EG09j7Mzg2zByGi-125" target="k8y80EG09j7Mzg2zByGi-100" edge="1">
          <mxGeometry relative="1" as="geometry">
            <mxPoint x="-1100.5" y="914.61" as="sourcePoint" />
            <mxPoint x="-940.4999999999999" y="914.61" as="targetPoint" />
          </mxGeometry>
        </mxCell>
        <mxCell id="Z6PvU_8tH3VTfmL3WVzz-25" value="" style="endArrow=none;html=1;rounded=0;exitX=0.5;exitY=0;exitDx=0;exitDy=0;entryX=0.5;entryY=1;entryDx=0;entryDy=0;" parent="1" source="k8y80EG09j7Mzg2zByGi-123" target="k8y80EG09j7Mzg2zByGi-100" edge="1">
          <mxGeometry relative="1" as="geometry">
            <mxPoint x="-1100.5" y="914.61" as="sourcePoint" />
            <mxPoint x="-940.4999999999999" y="914.61" as="targetPoint" />
          </mxGeometry>
        </mxCell>
        <mxCell id="Z6PvU_8tH3VTfmL3WVzz-27" value="fname" style="ellipse;whiteSpace=wrap;html=1;align=center;" parent="1" vertex="1">
          <mxGeometry x="-1533.42" y="478.93999999999994" width="55" height="30" as="geometry" />
        </mxCell>
        <mxCell id="Z6PvU_8tH3VTfmL3WVzz-28" value="minit" style="ellipse;whiteSpace=wrap;html=1;align=center;" parent="1" vertex="1">
          <mxGeometry x="-1480" y="468.10999999999996" width="55" height="30" as="geometry" />
        </mxCell>
        <mxCell id="Z6PvU_8tH3VTfmL3WVzz-29" value="lname" style="ellipse;whiteSpace=wrap;html=1;align=center;" parent="1" vertex="1">
          <mxGeometry x="-1423.42" y="461.5799999999999" width="55" height="30" as="geometry" />
        </mxCell>
        <mxCell id="Z6PvU_8tH3VTfmL3WVzz-30" style="edgeStyle=orthogonalEdgeStyle;rounded=0;orthogonalLoop=1;jettySize=auto;html=1;exitX=0.5;exitY=1;exitDx=0;exitDy=0;" parent="1" edge="1">
          <mxGeometry relative="1" as="geometry">
            <mxPoint x="-1354.7499999999998" y="496.8599999999999" as="sourcePoint" />
            <mxPoint x="-1354.7499999999998" y="496.8599999999999" as="targetPoint" />
          </mxGeometry>
        </mxCell>
        <mxCell id="Z6PvU_8tH3VTfmL3WVzz-31" value="" style="endArrow=none;html=1;rounded=0;exitX=0.616;exitY=1.012;exitDx=0;exitDy=0;entryX=0.5;entryY=0;entryDx=0;entryDy=0;exitPerimeter=0;" parent="1" source="k8y80EG09j7Mzg2zByGi-92" target="k8y80EG09j7Mzg2zByGi-96" edge="1">
          <mxGeometry relative="1" as="geometry">
            <mxPoint x="-1519.5" y="464.19" as="sourcePoint" />
            <mxPoint x="-1359.5" y="464.19" as="targetPoint" />
          </mxGeometry>
        </mxCell>
        <mxCell id="Z6PvU_8tH3VTfmL3WVzz-32" value="" style="endArrow=none;html=1;rounded=0;exitX=1;exitY=1;exitDx=0;exitDy=0;entryX=0;entryY=0;entryDx=0;entryDy=0;" parent="1" source="Z6PvU_8tH3VTfmL3WVzz-27" target="k8y80EG09j7Mzg2zByGi-97" edge="1">
          <mxGeometry relative="1" as="geometry">
            <mxPoint x="-1593.5" y="531.8599999999999" as="sourcePoint" />
            <mxPoint x="-1433.5" y="531.8599999999999" as="targetPoint" />
          </mxGeometry>
        </mxCell>
        <mxCell id="Z6PvU_8tH3VTfmL3WVzz-33" value="" style="endArrow=none;html=1;rounded=0;exitX=0.5;exitY=1;exitDx=0;exitDy=0;entryX=0.5;entryY=0;entryDx=0;entryDy=0;" parent="1" source="Z6PvU_8tH3VTfmL3WVzz-28" target="k8y80EG09j7Mzg2zByGi-97" edge="1">
          <mxGeometry relative="1" as="geometry">
            <mxPoint x="-1593.5" y="531.8599999999999" as="sourcePoint" />
            <mxPoint x="-1433.5" y="531.8599999999999" as="targetPoint" />
          </mxGeometry>
        </mxCell>
        <mxCell id="Z6PvU_8tH3VTfmL3WVzz-34" value="" style="endArrow=none;html=1;rounded=0;exitX=0.5;exitY=1;exitDx=0;exitDy=0;entryX=1;entryY=0;entryDx=0;entryDy=0;" parent="1" source="Z6PvU_8tH3VTfmL3WVzz-29" target="k8y80EG09j7Mzg2zByGi-97" edge="1">
          <mxGeometry relative="1" as="geometry">
            <mxPoint x="-1374.1954364826302" y="492.46660171779814" as="sourcePoint" />
            <mxPoint x="-1433.5" y="531.8599999999999" as="targetPoint" />
          </mxGeometry>
        </mxCell>
        <mxCell id="Z6PvU_8tH3VTfmL3WVzz-39" value="Date" style="ellipse;whiteSpace=wrap;html=1;align=center;" parent="1" vertex="1">
          <mxGeometry x="259.57000000000005" y="606.58" width="39" height="25.28" as="geometry" />
        </mxCell>
        <mxCell id="Z6PvU_8tH3VTfmL3WVzz-40" value="Time" style="ellipse;whiteSpace=wrap;html=1;align=center;" parent="1" vertex="1">
          <mxGeometry x="212.57000000000005" y="624.36" width="40" height="21.25" as="geometry" />
        </mxCell>
        <mxCell id="Z6PvU_8tH3VTfmL3WVzz-41" value="" style="endArrow=none;html=1;rounded=0;exitX=1.005;exitY=0.828;exitDx=0;exitDy=0;entryX=0;entryY=0.5;entryDx=0;entryDy=0;exitPerimeter=0;" parent="1" source="CQ-1AIOBtnm9xRJfX0xp-7" target="Z6PvU_8tH3VTfmL3WVzz-39" edge="1">
          <mxGeometry relative="1" as="geometry">
            <mxPoint x="-86.93" y="747.14" as="sourcePoint" />
            <mxPoint x="73.07" y="747.14" as="targetPoint" />
          </mxGeometry>
        </mxCell>
        <mxCell id="Z6PvU_8tH3VTfmL3WVzz-43" value="" style="endArrow=none;html=1;rounded=0;exitX=1;exitY=1;exitDx=0;exitDy=0;entryX=0;entryY=0.5;entryDx=0;entryDy=0;" parent="1" source="CQ-1AIOBtnm9xRJfX0xp-7" target="Z6PvU_8tH3VTfmL3WVzz-40" edge="1">
          <mxGeometry relative="1" as="geometry">
            <mxPoint x="-86.93" y="747.14" as="sourcePoint" />
            <mxPoint x="73.07" y="747.14" as="targetPoint" />
          </mxGeometry>
        </mxCell>
        <mxCell id="Z6PvU_8tH3VTfmL3WVzz-48" value="&lt;font style=&quot;font-size: 18px;&quot;&gt;&lt;b&gt;Gate&lt;/b&gt;&lt;/font&gt;" style="whiteSpace=wrap;html=1;align=center;fillColor=#99FFFF;" parent="1" vertex="1">
          <mxGeometry x="-935.9599999999998" y="1051.6899999999998" width="100" height="40" as="geometry" />
        </mxCell>
        <mxCell id="Z6PvU_8tH3VTfmL3WVzz-49" value="Maintens" style="shape=rhombus;perimeter=rhombusPerimeter;whiteSpace=wrap;html=1;align=center;fillColor=#BFFFD5;" parent="1" vertex="1">
          <mxGeometry x="-1190.6799999999996" y="203.11" width="85" height="40" as="geometry" />
        </mxCell>
        <mxCell id="Z6PvU_8tH3VTfmL3WVzz-50" value="Secures" style="shape=rhombus;perimeter=rhombusPerimeter;whiteSpace=wrap;html=1;align=center;fillColor=#BFFFD5;" parent="1" vertex="1">
          <mxGeometry x="-1453.3999999999999" y="1051.69" width="80" height="40" as="geometry" />
        </mxCell>
        <mxCell id="Z6PvU_8tH3VTfmL3WVzz-51" value="&lt;font style=&quot;font-size: 18px;&quot;&gt;&lt;b&gt;Bus&lt;/b&gt;&lt;/font&gt;" style="whiteSpace=wrap;html=1;align=center;fillColor=#99FFFF;" parent="1" vertex="1">
          <mxGeometry x="-1200.6799999999998" y="120" width="100" height="40" as="geometry" />
        </mxCell>
        <mxCell id="Z6PvU_8tH3VTfmL3WVzz-53" value="BNo" style="ellipse;whiteSpace=wrap;html=1;align=center;fontStyle=4;fillColor=#0066CC;" parent="1" vertex="1">
          <mxGeometry x="-1140.6799999999998" y="60" width="70" height="30" as="geometry" />
        </mxCell>
        <mxCell id="Z6PvU_8tH3VTfmL3WVzz-57" value="" style="endArrow=none;html=1;rounded=0;entryX=0.5;entryY=1;entryDx=0;entryDy=0;" parent="1" target="Z6PvU_8tH3VTfmL3WVzz-53" edge="1">
          <mxGeometry width="50" height="50" relative="1" as="geometry">
            <mxPoint x="-1148.1799999999998" y="120" as="sourcePoint" />
            <mxPoint x="-809.8" y="-6" as="targetPoint" />
          </mxGeometry>
        </mxCell>
        <mxCell id="Z6PvU_8tH3VTfmL3WVzz-58" value="" style="endArrow=none;html=1;rounded=0;exitX=0;exitY=0;exitDx=0;exitDy=0;entryX=1;entryY=0.5;entryDx=0;entryDy=0;" parent="1" source="CQ-1AIOBtnm9xRJfX0xp-5" target="Z6PvU_8tH3VTfmL3WVzz-60" edge="1">
          <mxGeometry relative="1" as="geometry">
            <mxPoint x="-1446.93" y="301.86" as="sourcePoint" />
            <mxPoint x="-1111.9299999999998" y="301.86" as="targetPoint" />
            <Array as="points" />
          </mxGeometry>
        </mxCell>
        <mxCell id="Z6PvU_8tH3VTfmL3WVzz-59" value="" style="resizable=0;html=1;whiteSpace=wrap;align=left;verticalAlign=bottom;" parent="Z6PvU_8tH3VTfmL3WVzz-58" connectable="0" vertex="1">
          <mxGeometry x="-1" relative="1" as="geometry">
            <mxPoint x="10" y="20" as="offset" />
          </mxGeometry>
        </mxCell>
        <mxCell id="xeTfKK4KIoF18XnCmDiO-7" value="m..n" style="edgeLabel;html=1;align=center;verticalAlign=middle;resizable=0;points=[];" parent="Z6PvU_8tH3VTfmL3WVzz-58" vertex="1" connectable="0">
          <mxGeometry x="-0.7291" y="-1" relative="1" as="geometry">
            <mxPoint as="offset" />
          </mxGeometry>
        </mxCell>
        <mxCell id="Z6PvU_8tH3VTfmL3WVzz-60" value="Maintens" style="shape=rhombus;perimeter=rhombusPerimeter;whiteSpace=wrap;html=1;align=center;fillColor=#BFFFD5;" parent="1" vertex="1">
          <mxGeometry x="-930.93" y="416.23" width="80" height="50" as="geometry" />
        </mxCell>
        <mxCell id="Z6PvU_8tH3VTfmL3WVzz-61" value="" style="endArrow=none;html=1;rounded=0;exitX=0.5;exitY=1;exitDx=0;exitDy=0;entryX=0.13;entryY=-0.021;entryDx=0;entryDy=0;entryPerimeter=0;" parent="1" source="Z6PvU_8tH3VTfmL3WVzz-49" target="k8y80EG09j7Mzg2zByGi-114" edge="1">
          <mxGeometry relative="1" as="geometry">
            <mxPoint x="-1110.1799999999998" y="259.39" as="sourcePoint" />
            <mxPoint x="-1308.1799999999998" y="310.61" as="targetPoint" />
          </mxGeometry>
        </mxCell>
        <mxCell id="Z6PvU_8tH3VTfmL3WVzz-146" value="1..m" style="edgeLabel;html=1;align=center;verticalAlign=middle;resizable=0;points=[];" parent="Z6PvU_8tH3VTfmL3WVzz-61" vertex="1" connectable="0">
          <mxGeometry x="0.6437" y="-2" relative="1" as="geometry">
            <mxPoint as="offset" />
          </mxGeometry>
        </mxCell>
        <mxCell id="Z6PvU_8tH3VTfmL3WVzz-63" value="" style="endArrow=none;html=1;rounded=0;exitX=0.5;exitY=0;exitDx=0;exitDy=0;entryX=0.561;entryY=1.001;entryDx=0;entryDy=0;entryPerimeter=0;" parent="1" source="Z6PvU_8tH3VTfmL3WVzz-49" target="Z6PvU_8tH3VTfmL3WVzz-51" edge="1">
          <mxGeometry relative="1" as="geometry">
            <mxPoint x="-819.4300000000001" y="675.61" as="sourcePoint" />
            <mxPoint x="-659.4300000000001" y="675.61" as="targetPoint" />
          </mxGeometry>
        </mxCell>
        <mxCell id="Z6PvU_8tH3VTfmL3WVzz-64" value="" style="resizable=0;html=1;whiteSpace=wrap;align=right;verticalAlign=bottom;" parent="Z6PvU_8tH3VTfmL3WVzz-63" connectable="0" vertex="1">
          <mxGeometry x="1" relative="1" as="geometry">
            <mxPoint x="30" y="-10" as="offset" />
          </mxGeometry>
        </mxCell>
        <mxCell id="aH8TJcvnFRqIlCfttIeH-1" value="1..n" style="edgeLabel;html=1;align=center;verticalAlign=middle;resizable=0;points=[];" vertex="1" connectable="0" parent="Z6PvU_8tH3VTfmL3WVzz-63">
          <mxGeometry x="0.4699" y="-1" relative="1" as="geometry">
            <mxPoint as="offset" />
          </mxGeometry>
        </mxCell>
        <mxCell id="Z6PvU_8tH3VTfmL3WVzz-65" value="" style="endArrow=none;html=1;rounded=0;exitX=0;exitY=0;exitDx=0;exitDy=0;entryX=1;entryY=0.5;entryDx=0;entryDy=0;" parent="1" source="Z6PvU_8tH3VTfmL3WVzz-60" target="k8y80EG09j7Mzg2zByGi-114" edge="1">
          <mxGeometry relative="1" as="geometry">
            <mxPoint x="-1269.9299999999998" y="231.86" as="sourcePoint" />
            <mxPoint x="-944.93" y="471.86" as="targetPoint" />
          </mxGeometry>
        </mxCell>
        <mxCell id="xeTfKK4KIoF18XnCmDiO-5" value="1..10" style="edgeLabel;html=1;align=center;verticalAlign=middle;resizable=0;points=[];" parent="Z6PvU_8tH3VTfmL3WVzz-65" vertex="1" connectable="0">
          <mxGeometry x="0.6872" relative="1" as="geometry">
            <mxPoint as="offset" />
          </mxGeometry>
        </mxCell>
        <mxCell id="Z6PvU_8tH3VTfmL3WVzz-67" value="" style="endArrow=none;html=1;rounded=0;exitX=0.5;exitY=0;exitDx=0;exitDy=0;entryX=0.5;entryY=1;entryDx=0;entryDy=0;" parent="1" source="Z6PvU_8tH3VTfmL3WVzz-50" target="k8y80EG09j7Mzg2zByGi-92" edge="1">
          <mxGeometry relative="1" as="geometry">
            <mxPoint x="-575" y="309.94" as="sourcePoint" />
            <mxPoint x="-595" y="290.44" as="targetPoint" />
          </mxGeometry>
        </mxCell>
        <mxCell id="Z6PvU_8tH3VTfmL3WVzz-148" value="2..2" style="edgeLabel;html=1;align=center;verticalAlign=middle;resizable=0;points=[];" parent="Z6PvU_8tH3VTfmL3WVzz-67" vertex="1" connectable="0">
          <mxGeometry x="0.7801" y="-1" relative="1" as="geometry">
            <mxPoint as="offset" />
          </mxGeometry>
        </mxCell>
        <mxCell id="Z6PvU_8tH3VTfmL3WVzz-69" value="" style="endArrow=none;html=1;rounded=0;entryX=0;entryY=0.5;entryDx=0;entryDy=0;exitX=1;exitY=0.5;exitDx=0;exitDy=0;" parent="1" source="Z6PvU_8tH3VTfmL3WVzz-50" target="Z6PvU_8tH3VTfmL3WVzz-48" edge="1">
          <mxGeometry relative="1" as="geometry">
            <mxPoint x="-964.7099999999999" y="360.36" as="sourcePoint" />
            <mxPoint x="-1294.71" y="280.36" as="targetPoint" />
          </mxGeometry>
        </mxCell>
        <mxCell id="Z6PvU_8tH3VTfmL3WVzz-70" value="" style="resizable=0;html=1;whiteSpace=wrap;align=right;verticalAlign=bottom;" parent="Z6PvU_8tH3VTfmL3WVzz-69" connectable="0" vertex="1">
          <mxGeometry x="1" relative="1" as="geometry">
            <mxPoint x="-11" y="20" as="offset" />
          </mxGeometry>
        </mxCell>
        <mxCell id="Z6PvU_8tH3VTfmL3WVzz-149" value="0..1" style="edgeLabel;html=1;align=center;verticalAlign=middle;resizable=0;points=[];" parent="Z6PvU_8tH3VTfmL3WVzz-69" vertex="1" connectable="0">
          <mxGeometry x="0.4669" y="-3" relative="1" as="geometry">
            <mxPoint as="offset" />
          </mxGeometry>
        </mxCell>
        <mxCell id="Z6PvU_8tH3VTfmL3WVzz-71" value="&lt;font style=&quot;font-size: 18px;&quot;&gt;&lt;b&gt;Bus_Hanger&lt;/b&gt;&lt;/font&gt;" style="whiteSpace=wrap;html=1;align=center;fillColor=#99FFFF;" parent="1" vertex="1">
          <mxGeometry x="-900" y="276.22" width="110" height="40" as="geometry" />
        </mxCell>
        <mxCell id="Z6PvU_8tH3VTfmL3WVzz-72" value="in" style="shape=rhombus;perimeter=rhombusPerimeter;whiteSpace=wrap;html=1;align=center;fillColor=#BFFFD5;" parent="1" vertex="1">
          <mxGeometry x="-739.1" y="349.82" width="70" height="50" as="geometry" />
        </mxCell>
        <mxCell id="Z6PvU_8tH3VTfmL3WVzz-73" value="" style="endArrow=none;html=1;rounded=0;exitX=0.5;exitY=1;exitDx=0;exitDy=0;entryX=0.168;entryY=-0.032;entryDx=0;entryDy=0;entryPerimeter=0;" parent="1" source="Z6PvU_8tH3VTfmL3WVzz-72" target="CQ-1AIOBtnm9xRJfX0xp-5" edge="1">
          <mxGeometry relative="1" as="geometry">
            <mxPoint x="-1351.9299999999998" y="411.86" as="sourcePoint" />
            <mxPoint x="-1191.9299999999998" y="411.86" as="targetPoint" />
          </mxGeometry>
        </mxCell>
        <mxCell id="Z6PvU_8tH3VTfmL3WVzz-74" value="" style="resizable=0;html=1;whiteSpace=wrap;align=right;verticalAlign=bottom;" parent="Z6PvU_8tH3VTfmL3WVzz-73" connectable="0" vertex="1">
          <mxGeometry x="1" relative="1" as="geometry">
            <mxPoint x="30" y="20" as="offset" />
          </mxGeometry>
        </mxCell>
        <mxCell id="Z6PvU_8tH3VTfmL3WVzz-143" value="1..1" style="edgeLabel;html=1;align=center;verticalAlign=middle;resizable=0;points=[];" parent="Z6PvU_8tH3VTfmL3WVzz-73" vertex="1" connectable="0">
          <mxGeometry x="0.8143" relative="1" as="geometry">
            <mxPoint y="-1" as="offset" />
          </mxGeometry>
        </mxCell>
        <mxCell id="Z6PvU_8tH3VTfmL3WVzz-75" value="&lt;font style=&quot;font-size: 18px;&quot;&gt;&lt;b&gt;Hanger&lt;/b&gt;&lt;/font&gt;" style="whiteSpace=wrap;html=1;align=center;fillColor=#99FFFF;" parent="1" vertex="1">
          <mxGeometry x="-754.1" y="228.11" width="100" height="40" as="geometry" />
        </mxCell>
        <mxCell id="Z6PvU_8tH3VTfmL3WVzz-76" value="" style="endArrow=none;html=1;rounded=0;entryX=0;entryY=0.5;entryDx=0;entryDy=0;exitX=1;exitY=0.5;exitDx=0;exitDy=0;" parent="1" source="Z6PvU_8tH3VTfmL3WVzz-77" target="Z6PvU_8tH3VTfmL3WVzz-75" edge="1">
          <mxGeometry width="50" height="50" relative="1" as="geometry">
            <mxPoint x="-807.7300000000005" y="238.56000000000006" as="sourcePoint" />
            <mxPoint x="-780.73" y="242.19999999999993" as="targetPoint" />
          </mxGeometry>
        </mxCell>
        <mxCell id="Z6PvU_8tH3VTfmL3WVzz-77" value="d" style="ellipse;whiteSpace=wrap;html=1;aspect=fixed;" parent="1" vertex="1">
          <mxGeometry x="-859.82" y="233.11" width="30" height="30" as="geometry" />
        </mxCell>
        <mxCell id="Z6PvU_8tH3VTfmL3WVzz-78" value="" style="endArrow=none;html=1;rounded=0;exitX=0.5;exitY=0;exitDx=0;exitDy=0;entryX=0.5;entryY=1;entryDx=0;entryDy=0;" parent="1" source="Z6PvU_8tH3VTfmL3WVzz-71" target="Z6PvU_8tH3VTfmL3WVzz-77" edge="1">
          <mxGeometry width="50" height="50" relative="1" as="geometry">
            <mxPoint x="-637.0699999999999" y="263.11" as="sourcePoint" />
            <mxPoint x="-587.0699999999999" y="213.11" as="targetPoint" />
          </mxGeometry>
        </mxCell>
        <mxCell id="Z6PvU_8tH3VTfmL3WVzz-79" value="" style="endArrow=none;html=1;rounded=0;exitX=0.5;exitY=0;exitDx=0;exitDy=0;entryX=0.5;entryY=1;entryDx=0;entryDy=0;" parent="1" source="Z6PvU_8tH3VTfmL3WVzz-72" target="Z6PvU_8tH3VTfmL3WVzz-75" edge="1">
          <mxGeometry relative="1" as="geometry">
            <mxPoint x="-678.8500000000003" y="453.3000000000001" as="sourcePoint" />
            <mxPoint x="-678.8500000000003" y="523.3" as="targetPoint" />
          </mxGeometry>
        </mxCell>
        <mxCell id="Z6PvU_8tH3VTfmL3WVzz-80" value="" style="resizable=0;html=1;whiteSpace=wrap;align=right;verticalAlign=bottom;" parent="Z6PvU_8tH3VTfmL3WVzz-79" connectable="0" vertex="1">
          <mxGeometry x="1" relative="1" as="geometry">
            <mxPoint x="26" y="21" as="offset" />
          </mxGeometry>
        </mxCell>
        <mxCell id="Z6PvU_8tH3VTfmL3WVzz-142" value="1..1" style="edgeLabel;html=1;align=center;verticalAlign=middle;resizable=0;points=[];" parent="Z6PvU_8tH3VTfmL3WVzz-79" vertex="1" connectable="0">
          <mxGeometry x="0.8537" relative="1" as="geometry">
            <mxPoint as="offset" />
          </mxGeometry>
        </mxCell>
        <mxCell id="Z6PvU_8tH3VTfmL3WVzz-81" value="in" style="shape=rhombus;perimeter=rhombusPerimeter;whiteSpace=wrap;html=1;align=center;fillColor=#BFFFD5;" parent="1" vertex="1">
          <mxGeometry x="-1010.71" y="233.10999999999999" width="51" height="41.25" as="geometry" />
        </mxCell>
        <mxCell id="Z6PvU_8tH3VTfmL3WVzz-82" value="" style="endArrow=none;html=1;rounded=0;entryX=1;entryY=0.5;entryDx=0;entryDy=0;exitX=0;exitY=0.5;exitDx=0;exitDy=0;" parent="1" source="Z6PvU_8tH3VTfmL3WVzz-71" target="Z6PvU_8tH3VTfmL3WVzz-81" edge="1">
          <mxGeometry relative="1" as="geometry">
            <mxPoint x="-878.72" y="297.17" as="sourcePoint" />
            <mxPoint x="-954.0400000000002" y="285.9350000000001" as="targetPoint" />
          </mxGeometry>
        </mxCell>
        <mxCell id="Z6PvU_8tH3VTfmL3WVzz-83" value="" style="resizable=0;html=1;whiteSpace=wrap;align=right;verticalAlign=bottom;" parent="Z6PvU_8tH3VTfmL3WVzz-82" connectable="0" vertex="1">
          <mxGeometry x="1" relative="1" as="geometry">
            <mxPoint x="70" as="offset" />
          </mxGeometry>
        </mxCell>
        <mxCell id="Z6PvU_8tH3VTfmL3WVzz-144" value="1..1" style="edgeLabel;html=1;align=center;verticalAlign=middle;resizable=0;points=[];" parent="Z6PvU_8tH3VTfmL3WVzz-82" vertex="1" connectable="0">
          <mxGeometry x="-0.6567" y="1" relative="1" as="geometry">
            <mxPoint as="offset" />
          </mxGeometry>
        </mxCell>
        <mxCell id="Z6PvU_8tH3VTfmL3WVzz-84" value="" style="endArrow=none;html=1;rounded=0;exitX=0;exitY=0.5;exitDx=0;exitDy=0;entryX=1;entryY=1;entryDx=0;entryDy=0;" parent="1" source="Z6PvU_8tH3VTfmL3WVzz-81" target="Z6PvU_8tH3VTfmL3WVzz-51" edge="1">
          <mxGeometry relative="1" as="geometry">
            <mxPoint x="-808.1800000000001" y="180.61" as="sourcePoint" />
            <mxPoint x="-755.6800000000001" y="470.61" as="targetPoint" />
          </mxGeometry>
        </mxCell>
        <mxCell id="Z6PvU_8tH3VTfmL3WVzz-85" value="" style="resizable=0;html=1;whiteSpace=wrap;align=right;verticalAlign=bottom;" parent="Z6PvU_8tH3VTfmL3WVzz-84" connectable="0" vertex="1">
          <mxGeometry x="1" relative="1" as="geometry">
            <mxPoint x="-10" as="offset" />
          </mxGeometry>
        </mxCell>
        <mxCell id="Z6PvU_8tH3VTfmL3WVzz-145" value="n..m" style="edgeLabel;html=1;align=center;verticalAlign=middle;resizable=0;points=[];" parent="Z6PvU_8tH3VTfmL3WVzz-84" vertex="1" connectable="0">
          <mxGeometry x="0.7564" y="-1" relative="1" as="geometry">
            <mxPoint as="offset" />
          </mxGeometry>
        </mxCell>
        <mxCell id="Z6PvU_8tH3VTfmL3WVzz-86" value="" style="endArrow=none;html=1;rounded=0;exitX=0.5;exitY=1;exitDx=0;exitDy=0;entryX=0.5;entryY=0;entryDx=0;entryDy=0;" parent="1" source="Z6PvU_8tH3VTfmL3WVzz-71" target="Z6PvU_8tH3VTfmL3WVzz-87" edge="1">
          <mxGeometry width="50" height="50" relative="1" as="geometry">
            <mxPoint x="-797.0699999999999" y="63.11" as="sourcePoint" />
            <mxPoint x="-747.0699999999999" y="13.11" as="targetPoint" />
            <Array as="points" />
          </mxGeometry>
        </mxCell>
        <mxCell id="Z6PvU_8tH3VTfmL3WVzz-87" value="Capacity" style="ellipse;whiteSpace=wrap;html=1;align=center;" parent="1" vertex="1">
          <mxGeometry x="-879.8199999999998" y="343.38000000000005" width="70" height="30" as="geometry" />
        </mxCell>
        <mxCell id="Z6PvU_8tH3VTfmL3WVzz-88" value="Hno" style="ellipse;whiteSpace=wrap;html=1;align=center;fontStyle=4;fillColor=#0066CC;" parent="1" vertex="1">
          <mxGeometry x="-701.6" y="178.11" width="65" height="30" as="geometry" />
        </mxCell>
        <mxCell id="Z6PvU_8tH3VTfmL3WVzz-89" value="" style="endArrow=none;html=1;rounded=0;exitX=0.5;exitY=0;exitDx=0;exitDy=0;entryX=0.5;entryY=1;entryDx=0;entryDy=0;" parent="1" source="Z6PvU_8tH3VTfmL3WVzz-75" target="Z6PvU_8tH3VTfmL3WVzz-88" edge="1">
          <mxGeometry width="50" height="50" relative="1" as="geometry">
            <mxPoint x="-504.42999999999995" y="293.91" as="sourcePoint" />
            <mxPoint x="-454.43" y="243.91000000000003" as="targetPoint" />
          </mxGeometry>
        </mxCell>
        <mxCell id="Z6PvU_8tH3VTfmL3WVzz-90" value="RTime" style="ellipse;whiteSpace=wrap;html=1;align=center;" parent="1" vertex="1">
          <mxGeometry x="-1265.4299999999998" y="178.11" width="60" height="30" as="geometry" />
        </mxCell>
        <mxCell id="Z6PvU_8tH3VTfmL3WVzz-91" value="sdate" style="ellipse;whiteSpace=wrap;html=1;align=center;" parent="1" vertex="1">
          <mxGeometry x="-874.39" y="494.47" width="61.5" height="33.86" as="geometry" />
        </mxCell>
        <mxCell id="Z6PvU_8tH3VTfmL3WVzz-92" value="" style="endArrow=none;html=1;rounded=0;exitX=0;exitY=0.5;exitDx=0;exitDy=0;entryX=1;entryY=0.5;entryDx=0;entryDy=0;" parent="1" source="Z6PvU_8tH3VTfmL3WVzz-49" target="Z6PvU_8tH3VTfmL3WVzz-90" edge="1">
          <mxGeometry width="50" height="50" relative="1" as="geometry">
            <mxPoint x="-990.68" y="596.23" as="sourcePoint" />
            <mxPoint x="-940.68" y="546.23" as="targetPoint" />
          </mxGeometry>
        </mxCell>
        <mxCell id="Z6PvU_8tH3VTfmL3WVzz-93" value="" style="endArrow=none;html=1;rounded=0;exitX=1;exitY=1;exitDx=0;exitDy=0;entryX=0.5;entryY=0;entryDx=0;entryDy=0;" parent="1" source="Z6PvU_8tH3VTfmL3WVzz-60" target="Z6PvU_8tH3VTfmL3WVzz-91" edge="1">
          <mxGeometry width="50" height="50" relative="1" as="geometry">
            <mxPoint x="-1192.06" y="421.86" as="sourcePoint" />
            <mxPoint x="-1142.06" y="371.86" as="targetPoint" />
          </mxGeometry>
        </mxCell>
        <mxCell id="Z6PvU_8tH3VTfmL3WVzz-94" value="HLocation" style="ellipse;whiteSpace=wrap;html=1;align=center;" parent="1" vertex="1">
          <mxGeometry x="-771.6" y="178.11" width="64.67" height="30" as="geometry" />
        </mxCell>
        <mxCell id="Z6PvU_8tH3VTfmL3WVzz-95" value="" style="endArrow=none;html=1;rounded=0;entryX=0.5;entryY=1;entryDx=0;entryDy=0;exitX=0.5;exitY=0;exitDx=0;exitDy=0;" parent="1" source="Z6PvU_8tH3VTfmL3WVzz-75" target="Z6PvU_8tH3VTfmL3WVzz-94" edge="1">
          <mxGeometry width="50" height="50" relative="1" as="geometry">
            <mxPoint x="-634.4300000000001" y="293.91" as="sourcePoint" />
            <mxPoint x="-584.43" y="243.91000000000003" as="targetPoint" />
          </mxGeometry>
        </mxCell>
        <mxCell id="Z6PvU_8tH3VTfmL3WVzz-96" value="BType" style="ellipse;whiteSpace=wrap;html=1;align=center;" parent="1" vertex="1">
          <mxGeometry x="-1205.6799999999998" y="40" width="70" height="30" as="geometry" />
        </mxCell>
        <mxCell id="Z6PvU_8tH3VTfmL3WVzz-97" value="" style="endArrow=none;html=1;rounded=0;exitX=0.5;exitY=1;exitDx=0;exitDy=0;entryX=0.5;entryY=0;entryDx=0;entryDy=0;" parent="1" source="Z6PvU_8tH3VTfmL3WVzz-96" target="Z6PvU_8tH3VTfmL3WVzz-51" edge="1">
          <mxGeometry width="50" height="50" relative="1" as="geometry">
            <mxPoint x="-904.7999999999998" y="694" as="sourcePoint" />
            <mxPoint x="-817.3" y="84" as="targetPoint" />
          </mxGeometry>
        </mxCell>
        <mxCell id="Z6PvU_8tH3VTfmL3WVzz-98" value="Capacity" style="ellipse;whiteSpace=wrap;html=1;align=center;" parent="1" vertex="1">
          <mxGeometry x="-1092.9299999999998" y="90" width="65" height="30" as="geometry" />
        </mxCell>
        <mxCell id="Z6PvU_8tH3VTfmL3WVzz-99" value="" style="endArrow=none;html=1;rounded=0;entryX=0;entryY=0.5;entryDx=0;entryDy=0;" parent="1" source="Z6PvU_8tH3VTfmL3WVzz-51" target="Z6PvU_8tH3VTfmL3WVzz-98" edge="1">
          <mxGeometry width="50" height="50" relative="1" as="geometry">
            <mxPoint x="-817.3" y="84" as="sourcePoint" />
            <mxPoint x="-854.7999999999998" y="644" as="targetPoint" />
          </mxGeometry>
        </mxCell>
        <mxCell id="Z6PvU_8tH3VTfmL3WVzz-100" value="" style="endArrow=none;html=1;rounded=0;entryX=0.25;entryY=1;entryDx=0;entryDy=0;exitX=0.5;exitY=0;exitDx=0;exitDy=0;" parent="1" source="Z6PvU_8tH3VTfmL3WVzz-101" target="Z6PvU_8tH3VTfmL3WVzz-48" edge="1">
          <mxGeometry width="50" height="50" relative="1" as="geometry">
            <mxPoint x="-1005.9599999999998" y="1083.11" as="sourcePoint" />
            <mxPoint x="-1059.0799999999997" y="1190.4399999999998" as="targetPoint" />
          </mxGeometry>
        </mxCell>
        <mxCell id="Z6PvU_8tH3VTfmL3WVzz-101" value="Gnumber" style="ellipse;whiteSpace=wrap;html=1;align=center;fontStyle=4;fillColor=#0066CC;" parent="1" vertex="1">
          <mxGeometry x="-944.3899999999998" y="1111.86" width="70" height="30" as="geometry" />
        </mxCell>
        <mxCell id="Z6PvU_8tH3VTfmL3WVzz-132" style="edgeStyle=orthogonalEdgeStyle;rounded=0;orthogonalLoop=1;jettySize=auto;html=1;entryX=0;entryY=0.5;entryDx=0;entryDy=0;exitX=1;exitY=0.5;exitDx=0;exitDy=0;" parent="1" source="k8y80EG09j7Mzg2zByGi-100" target="Z6PvU_8tH3VTfmL3WVzz-134" edge="1">
          <mxGeometry relative="1" as="geometry">
            <mxPoint x="-1006.9999999999999" y="875.11" as="sourcePoint" />
          </mxGeometry>
        </mxCell>
        <mxCell id="Z6PvU_8tH3VTfmL3WVzz-133" value="" style="edgeStyle=orthogonalEdgeStyle;rounded=0;orthogonalLoop=1;jettySize=auto;html=1;entryX=0;entryY=0.5;entryDx=0;entryDy=0;exitX=1;exitY=0.5;exitDx=0;exitDy=0;" parent="1" source="k8y80EG09j7Mzg2zByGi-117" target="Z6PvU_8tH3VTfmL3WVzz-134" edge="1">
          <mxGeometry relative="1" as="geometry">
            <mxPoint x="-1004.9999999999999" y="704.11" as="sourcePoint" />
          </mxGeometry>
        </mxCell>
        <mxCell id="7YsSEFIcP3xU8HmOZimz-3" style="edgeStyle=orthogonalEdgeStyle;rounded=0;orthogonalLoop=1;jettySize=auto;html=1;exitX=1;exitY=0.5;exitDx=0;exitDy=0;entryX=0.5;entryY=0;entryDx=0;entryDy=0;" parent="1" source="Z6PvU_8tH3VTfmL3WVzz-134" target="Z6PvU_8tH3VTfmL3WVzz-135" edge="1">
          <mxGeometry relative="1" as="geometry" />
        </mxCell>
        <mxCell id="Z6PvU_8tH3VTfmL3WVzz-134" value="u" style="ellipse;whiteSpace=wrap;html=1;rounded=0;arcSize=10;" parent="1" vertex="1">
          <mxGeometry x="-935.9599999999998" y="778.74" width="32.5" height="21.25" as="geometry" />
        </mxCell>
        <mxCell id="Z6PvU_8tH3VTfmL3WVzz-135" value="&lt;span style=&quot;font-size: 18px;&quot;&gt;&lt;b&gt;Air Employee&lt;/b&gt;&lt;/span&gt;" style="whiteSpace=wrap;html=1;align=center;fillColor=#99FFFF;" parent="1" vertex="1">
          <mxGeometry x="-835.96" y="885.1500000000001" width="96.17" height="45.39" as="geometry" />
        </mxCell>
        <mxCell id="Z6PvU_8tH3VTfmL3WVzz-151" value="&lt;font style=&quot;font-size: 18px;&quot;&gt;&lt;b&gt;Weather_Data&lt;/b&gt;&lt;/font&gt;" style="whiteSpace=wrap;html=1;align=center;fillColor=#99FFFF;" parent="1" vertex="1">
          <mxGeometry x="381.50000000000006" y="832.41" width="150" height="58.75" as="geometry" />
        </mxCell>
        <mxCell id="Z6PvU_8tH3VTfmL3WVzz-155" value="Wind_Direction" style="ellipse;whiteSpace=wrap;html=1;align=center;" parent="1" vertex="1">
          <mxGeometry x="180.00000000000006" y="942.49" width="91.5" height="26.5" as="geometry" />
        </mxCell>
        <mxCell id="Z6PvU_8tH3VTfmL3WVzz-156" value="Wind" style="ellipse;whiteSpace=wrap;html=1;align=center;" parent="1" vertex="1">
          <mxGeometry x="299.00000000000006" y="886.0799999999999" width="60" height="27.33" as="geometry" />
        </mxCell>
        <mxCell id="Z6PvU_8tH3VTfmL3WVzz-157" value="" style="endArrow=none;html=1;rounded=0;entryX=1;entryY=0;entryDx=0;entryDy=0;exitX=0;exitY=0.5;exitDx=0;exitDy=0;" parent="1" source="Z6PvU_8tH3VTfmL3WVzz-174" target="Z6PvU_8tH3VTfmL3WVzz-151" edge="1">
          <mxGeometry relative="1" as="geometry">
            <mxPoint x="494.50000000000006" y="758.66" as="sourcePoint" />
            <mxPoint x="331.50000000000006" y="903.66" as="targetPoint" />
          </mxGeometry>
        </mxCell>
        <mxCell id="Z6PvU_8tH3VTfmL3WVzz-158" value="" style="endArrow=none;html=1;rounded=0;exitX=1;exitY=0.75;exitDx=0;exitDy=0;entryX=0;entryY=0.5;entryDx=0;entryDy=0;" parent="1" source="Z6PvU_8tH3VTfmL3WVzz-151" target="Z6PvU_8tH3VTfmL3WVzz-211" edge="1">
          <mxGeometry relative="1" as="geometry">
            <mxPoint x="601.5" y="893.66" as="sourcePoint" />
            <mxPoint x="606.5000000000205" y="934.91" as="targetPoint" />
          </mxGeometry>
        </mxCell>
        <mxCell id="Z6PvU_8tH3VTfmL3WVzz-159" value="" style="endArrow=none;html=1;rounded=0;entryX=0;entryY=1;entryDx=0;entryDy=0;" parent="1" source="Z6PvU_8tH3VTfmL3WVzz-162" target="Z6PvU_8tH3VTfmL3WVzz-151" edge="1">
          <mxGeometry relative="1" as="geometry">
            <mxPoint x="241.50000000000006" y="858.66" as="sourcePoint" />
            <mxPoint x="321.50000000000006" y="888.66" as="targetPoint" />
          </mxGeometry>
        </mxCell>
        <mxCell id="Z6PvU_8tH3VTfmL3WVzz-161" value="" style="endArrow=none;html=1;rounded=0;exitX=0.75;exitY=0;exitDx=0;exitDy=0;entryX=0.5;entryY=1;entryDx=0;entryDy=0;" parent="1" source="Z6PvU_8tH3VTfmL3WVzz-151" target="Z6PvU_8tH3VTfmL3WVzz-171" edge="1">
          <mxGeometry relative="1" as="geometry">
            <mxPoint x="491.50000000000006" y="988.66" as="sourcePoint" />
            <mxPoint x="451.50000000000006" y="628.66" as="targetPoint" />
          </mxGeometry>
        </mxCell>
        <mxCell id="Z6PvU_8tH3VTfmL3WVzz-162" value="Humidity" style="ellipse;whiteSpace=wrap;html=1;align=center;" parent="1" vertex="1">
          <mxGeometry x="309.00000000000006" y="942.4899999999999" width="100" height="40" as="geometry" />
        </mxCell>
        <mxCell id="Z6PvU_8tH3VTfmL3WVzz-163" value="Precipitation" style="ellipse;whiteSpace=wrap;html=1;align=center;" parent="1" vertex="1">
          <mxGeometry x="459.00000000000006" y="948.99" width="91.5" height="33.5" as="geometry" />
        </mxCell>
        <mxCell id="Z6PvU_8tH3VTfmL3WVzz-164" value="air_Pressure" style="ellipse;whiteSpace=wrap;html=1;align=center;" parent="1" vertex="1">
          <mxGeometry x="375.93000000000006" y="899.9099999999999" width="100" height="40" as="geometry" />
        </mxCell>
        <mxCell id="Z6PvU_8tH3VTfmL3WVzz-166" value="Wind_Speed" style="ellipse;whiteSpace=wrap;html=1;align=center;" parent="1" vertex="1">
          <mxGeometry x="187.50000000000006" y="898.16" width="75" height="35.83" as="geometry" />
        </mxCell>
        <mxCell id="Z6PvU_8tH3VTfmL3WVzz-167" value="" style="endArrow=none;html=1;rounded=0;entryX=0.25;entryY=1;entryDx=0;entryDy=0;exitX=0.5;exitY=0;exitDx=0;exitDy=0;" parent="1" source="Z6PvU_8tH3VTfmL3WVzz-164" target="Z6PvU_8tH3VTfmL3WVzz-151" edge="1">
          <mxGeometry relative="1" as="geometry">
            <mxPoint x="241.50000000000006" y="888.66" as="sourcePoint" />
            <mxPoint x="581.5" y="858.66" as="targetPoint" />
          </mxGeometry>
        </mxCell>
        <mxCell id="Z6PvU_8tH3VTfmL3WVzz-168" value="" style="endArrow=none;html=1;rounded=0;exitX=0.75;exitY=1;exitDx=0;exitDy=0;entryX=0.5;entryY=0;entryDx=0;entryDy=0;" parent="1" source="Z6PvU_8tH3VTfmL3WVzz-151" target="Z6PvU_8tH3VTfmL3WVzz-163" edge="1">
          <mxGeometry relative="1" as="geometry">
            <mxPoint x="421.50000000000006" y="858.66" as="sourcePoint" />
            <mxPoint x="241.50000000000006" y="958.66" as="targetPoint" />
          </mxGeometry>
        </mxCell>
        <mxCell id="Z6PvU_8tH3VTfmL3WVzz-169" value="" style="endArrow=none;html=1;rounded=0;entryX=0;entryY=0.75;entryDx=0;entryDy=0;exitX=1;exitY=0.5;exitDx=0;exitDy=0;" parent="1" source="Z6PvU_8tH3VTfmL3WVzz-156" target="Z6PvU_8tH3VTfmL3WVzz-151" edge="1">
          <mxGeometry relative="1" as="geometry">
            <mxPoint x="419.50000000000006" y="758.66" as="sourcePoint" />
            <mxPoint x="331.50000000000006" y="838.66" as="targetPoint" />
          </mxGeometry>
        </mxCell>
        <mxCell id="Z6PvU_8tH3VTfmL3WVzz-170" value="" style="endArrow=none;html=1;rounded=0;exitX=1;exitY=0.25;exitDx=0;exitDy=0;entryX=0;entryY=0.5;entryDx=0;entryDy=0;" parent="1" source="Z6PvU_8tH3VTfmL3WVzz-151" target="Z6PvU_8tH3VTfmL3WVzz-172" edge="1">
          <mxGeometry relative="1" as="geometry">
            <mxPoint x="571.5" y="828.66" as="sourcePoint" />
            <mxPoint x="621.5" y="868.66" as="targetPoint" />
          </mxGeometry>
        </mxCell>
        <mxCell id="Z6PvU_8tH3VTfmL3WVzz-171" value="Weather_Condition" style="ellipse;whiteSpace=wrap;html=1;align=center;" parent="1" vertex="1">
          <mxGeometry x="465.74999999999994" y="778.7399999999999" width="130" height="31.11" as="geometry" />
        </mxCell>
        <mxCell id="Z6PvU_8tH3VTfmL3WVzz-172" value="Cloud_Coverage" style="ellipse;whiteSpace=wrap;html=1;align=center;" parent="1" vertex="1">
          <mxGeometry x="544.5" y="819.41" width="101.5" height="37.25" as="geometry" />
        </mxCell>
        <mxCell id="Z6PvU_8tH3VTfmL3WVzz-174" value="Relative_Visibility" style="ellipse;whiteSpace=wrap;html=1;align=center;" parent="1" vertex="1">
          <mxGeometry x="609" y="789.16" width="110" height="32.25" as="geometry" />
        </mxCell>
        <mxCell id="Z6PvU_8tH3VTfmL3WVzz-175" value="" style="endArrow=none;html=1;rounded=0;exitX=1;exitY=0.5;exitDx=0;exitDy=0;entryX=0;entryY=0.5;entryDx=0;entryDy=0;" parent="1" source="Z6PvU_8tH3VTfmL3WVzz-166" target="Z6PvU_8tH3VTfmL3WVzz-156" edge="1">
          <mxGeometry relative="1" as="geometry">
            <mxPoint x="461.50000000000006" y="802.82" as="sourcePoint" />
            <mxPoint x="299.0000000000046" y="914.405" as="targetPoint" />
          </mxGeometry>
        </mxCell>
        <mxCell id="Z6PvU_8tH3VTfmL3WVzz-176" value="" style="endArrow=none;html=1;rounded=0;exitX=1;exitY=0;exitDx=0;exitDy=0;entryX=0;entryY=0.5;entryDx=0;entryDy=0;" parent="1" source="Z6PvU_8tH3VTfmL3WVzz-155" target="Z6PvU_8tH3VTfmL3WVzz-156" edge="1">
          <mxGeometry relative="1" as="geometry">
            <mxPoint x="461.50000000000006" y="802.82" as="sourcePoint" />
            <mxPoint x="299.0000000000046" y="914.405" as="targetPoint" />
          </mxGeometry>
        </mxCell>
        <mxCell id="Z6PvU_8tH3VTfmL3WVzz-177" value="Wind_Gust" style="ellipse;whiteSpace=wrap;html=1;align=center;" parent="1" vertex="1">
          <mxGeometry x="187.5" y="868.05" width="79" height="28.43" as="geometry" />
        </mxCell>
        <mxCell id="Z6PvU_8tH3VTfmL3WVzz-178" value="" style="endArrow=none;html=1;rounded=0;exitX=1;exitY=0.5;exitDx=0;exitDy=0;entryX=0;entryY=0.5;entryDx=0;entryDy=0;" parent="1" source="Z6PvU_8tH3VTfmL3WVzz-177" target="Z6PvU_8tH3VTfmL3WVzz-156" edge="1">
          <mxGeometry relative="1" as="geometry">
            <mxPoint x="461.50000000000006" y="802.82" as="sourcePoint" />
            <mxPoint x="299.0000000000046" y="914.405" as="targetPoint" />
          </mxGeometry>
        </mxCell>
        <mxCell id="Z6PvU_8tH3VTfmL3WVzz-181" value="" style="endArrow=none;html=1;rounded=0;exitX=0.75;exitY=1;exitDx=0;exitDy=0;entryX=0.437;entryY=-0.057;entryDx=0;entryDy=0;entryPerimeter=0;" parent="1" source="Z6PvU_8tH3VTfmL3WVzz-151" target="Z6PvU_8tH3VTfmL3WVzz-222" edge="1">
          <mxGeometry relative="1" as="geometry">
            <mxPoint x="831.4999999999999" y="1218.6599999999999" as="sourcePoint" />
            <mxPoint x="516.4508753449591" y="968.6101326682889" as="targetPoint" />
          </mxGeometry>
        </mxCell>
        <mxCell id="Z6PvU_8tH3VTfmL3WVzz-182" value="Country_Code" style="ellipse;whiteSpace=wrap;html=1;align=center;" parent="1" vertex="1">
          <mxGeometry x="559" y="901.41" width="86.5" height="36" as="geometry" />
        </mxCell>
        <mxCell id="Z6PvU_8tH3VTfmL3WVzz-183" value="" style="endArrow=none;html=1;rounded=0;entryX=0;entryY=0;entryDx=0;entryDy=0;exitX=1;exitY=1;exitDx=0;exitDy=0;" parent="1" source="Z6PvU_8tH3VTfmL3WVzz-151" target="Z6PvU_8tH3VTfmL3WVzz-182" edge="1">
          <mxGeometry relative="1" as="geometry">
            <mxPoint x="541.5" y="828.66" as="sourcePoint" />
            <mxPoint x="701.4999999999999" y="828.66" as="targetPoint" />
          </mxGeometry>
        </mxCell>
        <mxCell id="Z6PvU_8tH3VTfmL3WVzz-191" value="Latitude" style="ellipse;whiteSpace=wrap;html=1;align=center;" parent="1" vertex="1">
          <mxGeometry x="205.50000000000006" y="821.41" width="65" height="28.58" as="geometry" />
        </mxCell>
        <mxCell id="Z6PvU_8tH3VTfmL3WVzz-192" value="Coordinates" style="ellipse;whiteSpace=wrap;html=1;align=center;" parent="1" vertex="1">
          <mxGeometry x="291.75000000000006" y="803.28" width="72.5" height="33.25" as="geometry" />
        </mxCell>
        <mxCell id="Z6PvU_8tH3VTfmL3WVzz-193" value="" style="endArrow=none;html=1;rounded=0;entryX=1;entryY=0.5;entryDx=0;entryDy=0;exitX=0;exitY=0.5;exitDx=0;exitDy=0;" parent="1" source="Z6PvU_8tH3VTfmL3WVzz-192" target="Z6PvU_8tH3VTfmL3WVzz-191" edge="1">
          <mxGeometry relative="1" as="geometry">
            <mxPoint x="655.4999999999999" y="663.16" as="sourcePoint" />
            <mxPoint x="595.5" y="403.16" as="targetPoint" />
          </mxGeometry>
        </mxCell>
        <mxCell id="Z6PvU_8tH3VTfmL3WVzz-194" value="" style="endArrow=none;html=1;rounded=0;entryX=1;entryY=0.5;entryDx=0;entryDy=0;exitX=0;exitY=0.5;exitDx=0;exitDy=0;" parent="1" source="Z6PvU_8tH3VTfmL3WVzz-192" target="Z6PvU_8tH3VTfmL3WVzz-195" edge="1">
          <mxGeometry relative="1" as="geometry">
            <mxPoint x="278.00000000000006" y="789.41" as="sourcePoint" />
            <mxPoint x="645.4999999999999" y="835.16" as="targetPoint" />
          </mxGeometry>
        </mxCell>
        <mxCell id="Z6PvU_8tH3VTfmL3WVzz-195" value="Longitude" style="ellipse;whiteSpace=wrap;html=1;align=center;" parent="1" vertex="1">
          <mxGeometry x="205.5" y="788.05" width="70" height="26.02" as="geometry" />
        </mxCell>
        <mxCell id="Z6PvU_8tH3VTfmL3WVzz-196" value="" style="endArrow=none;html=1;rounded=0;entryX=0;entryY=0.25;entryDx=0;entryDy=0;exitX=1;exitY=0.5;exitDx=0;exitDy=0;" parent="1" source="Z6PvU_8tH3VTfmL3WVzz-192" target="Z6PvU_8tH3VTfmL3WVzz-151" edge="1">
          <mxGeometry relative="1" as="geometry">
            <mxPoint x="380.50000000000006" y="742.9599999999999" as="sourcePoint" />
            <mxPoint x="370.50000000000006" y="792.9599999999999" as="targetPoint" />
          </mxGeometry>
        </mxCell>
        <mxCell id="Z6PvU_8tH3VTfmL3WVzz-197" value="Sends" style="shape=rhombus;perimeter=rhombusPerimeter;whiteSpace=wrap;html=1;align=center;rotation=0;fillColor=#BFFFD5;" parent="1" vertex="1">
          <mxGeometry x="272.57000000000005" y="690.72" width="70" height="40" as="geometry" />
        </mxCell>
        <mxCell id="Z6PvU_8tH3VTfmL3WVzz-199" value="" style="endArrow=none;html=1;rounded=0;entryX=1;entryY=0.5;entryDx=0;entryDy=0;exitX=0.5;exitY=0;exitDx=0;exitDy=0;" parent="1" source="Z6PvU_8tH3VTfmL3WVzz-151" target="Z6PvU_8tH3VTfmL3WVzz-197" edge="1">
          <mxGeometry relative="1" as="geometry">
            <mxPoint x="-32.43000000000001" y="1211.61" as="sourcePoint" />
            <mxPoint x="1099.07" y="1595.36" as="targetPoint" />
          </mxGeometry>
        </mxCell>
        <mxCell id="xeTfKK4KIoF18XnCmDiO-38" value="m..n" style="edgeLabel;html=1;align=center;verticalAlign=middle;resizable=0;points=[];" parent="Z6PvU_8tH3VTfmL3WVzz-199" vertex="1" connectable="0">
          <mxGeometry x="-0.7268" relative="1" as="geometry">
            <mxPoint as="offset" />
          </mxGeometry>
        </mxCell>
        <mxCell id="Z6PvU_8tH3VTfmL3WVzz-203" value="" style="endArrow=none;html=1;rounded=0;entryX=0;entryY=0.5;entryDx=0;entryDy=0;exitX=0.863;exitY=1.075;exitDx=0;exitDy=0;exitPerimeter=0;" parent="1" source="CQ-1AIOBtnm9xRJfX0xp-7" target="Z6PvU_8tH3VTfmL3WVzz-197" edge="1">
          <mxGeometry relative="1" as="geometry">
            <mxPoint x="183.07000000000005" y="841.86" as="sourcePoint" />
            <mxPoint x="178.0700000000005" y="703.86" as="targetPoint" />
          </mxGeometry>
        </mxCell>
        <mxCell id="tR4aqdJXtH1gXFBSBeib-5" value="k..l" style="edgeLabel;html=1;align=center;verticalAlign=middle;resizable=0;points=[];" parent="Z6PvU_8tH3VTfmL3WVzz-203" vertex="1" connectable="0">
          <mxGeometry x="-0.3012" relative="1" as="geometry">
            <mxPoint as="offset" />
          </mxGeometry>
        </mxCell>
        <mxCell id="Z6PvU_8tH3VTfmL3WVzz-211" value="Log_Date" style="ellipse;whiteSpace=wrap;html=1;align=center;" parent="1" vertex="1">
          <mxGeometry x="559" y="859.91" width="70" height="37.87" as="geometry" />
        </mxCell>
        <mxCell id="Z6PvU_8tH3VTfmL3WVzz-222" value="CD" style="ellipse;whiteSpace=wrap;html=1;align=center;fontStyle=4;fillColor=#0066CC;" parent="1" vertex="1">
          <mxGeometry x="502.50000000000006" y="903.99" width="56.5" height="30" as="geometry" />
        </mxCell>
        <mxCell id="wj-DW5nw5tzi9YAfkiQZ-1" value="job title" style="ellipse;whiteSpace=wrap;html=1;align=center;" parent="1" vertex="1">
          <mxGeometry x="-1590" y="525.3999999999999" width="58.12" height="32.5" as="geometry" />
        </mxCell>
        <mxCell id="wj-DW5nw5tzi9YAfkiQZ-3" value="" style="endArrow=none;html=1;rounded=0;exitX=1;exitY=1;exitDx=0;exitDy=0;entryX=0;entryY=0;entryDx=0;entryDy=0;" parent="1" source="wj-DW5nw5tzi9YAfkiQZ-1" target="k8y80EG09j7Mzg2zByGi-92" edge="1">
          <mxGeometry relative="1" as="geometry">
            <mxPoint x="-1328.75" y="581.6899999999999" as="sourcePoint" />
            <mxPoint x="-1168.75" y="581.6899999999999" as="targetPoint" />
          </mxGeometry>
        </mxCell>
        <mxCell id="wj-DW5nw5tzi9YAfkiQZ-4" value="Location" style="ellipse;whiteSpace=wrap;html=1;align=center;" parent="1" vertex="1">
          <mxGeometry x="-928.4499999999997" y="1001.86" width="56.76" height="32.25" as="geometry" />
        </mxCell>
        <mxCell id="wj-DW5nw5tzi9YAfkiQZ-8" value="" style="endArrow=none;html=1;rounded=0;exitX=0.5;exitY=1;exitDx=0;exitDy=0;entryX=0.336;entryY=0.039;entryDx=0;entryDy=0;entryPerimeter=0;" parent="1" source="wj-DW5nw5tzi9YAfkiQZ-4" target="Z6PvU_8tH3VTfmL3WVzz-48" edge="1">
          <mxGeometry relative="1" as="geometry">
            <mxPoint x="-835.9599999999998" y="1043.11" as="sourcePoint" />
            <mxPoint x="-675.9599999999999" y="1043.11" as="targetPoint" />
          </mxGeometry>
        </mxCell>
        <mxCell id="wj-DW5nw5tzi9YAfkiQZ-9" value="status" style="ellipse;whiteSpace=wrap;html=1;align=center;" parent="1" vertex="1">
          <mxGeometry x="194.07000000000005" y="540.4399999999999" width="50" height="18.75" as="geometry" />
        </mxCell>
        <mxCell id="wj-DW5nw5tzi9YAfkiQZ-13" value="" style="endArrow=none;html=1;rounded=0;exitX=0.5;exitY=1;exitDx=0;exitDy=0;entryX=1;entryY=0.099;entryDx=0;entryDy=0;entryPerimeter=0;" parent="1" source="wj-DW5nw5tzi9YAfkiQZ-9" target="CQ-1AIOBtnm9xRJfX0xp-7" edge="1">
          <mxGeometry relative="1" as="geometry">
            <mxPoint x="123.07" y="571.86" as="sourcePoint" />
            <mxPoint x="283.07000000000005" y="571.86" as="targetPoint" />
          </mxGeometry>
        </mxCell>
        <mxCell id="xeTfKK4KIoF18XnCmDiO-2" value="" style="endArrow=none;html=1;rounded=0;exitX=0;exitY=1;exitDx=0;exitDy=0;entryX=1;entryY=0.5;entryDx=0;entryDy=0;" parent="1" source="Z6PvU_8tH3VTfmL3WVzz-60" target="k8y80EG09j7Mzg2zByGi-113" edge="1">
          <mxGeometry relative="1" as="geometry">
            <mxPoint x="-928.93" y="428.86" as="sourcePoint" />
            <mxPoint x="-1154.9299999999998" y="313.86" as="targetPoint" />
          </mxGeometry>
        </mxCell>
        <mxCell id="xeTfKK4KIoF18XnCmDiO-6" value="1..1" style="edgeLabel;html=1;align=center;verticalAlign=middle;resizable=0;points=[];" parent="xeTfKK4KIoF18XnCmDiO-2" vertex="1" connectable="0">
          <mxGeometry x="0.4793" relative="1" as="geometry">
            <mxPoint as="offset" />
          </mxGeometry>
        </mxCell>
        <mxCell id="xeTfKK4KIoF18XnCmDiO-3" value="malfunction" style="ellipse;whiteSpace=wrap;html=1;align=center;" parent="1" vertex="1">
          <mxGeometry x="-965.75" y="487.94000000000005" width="82.46" height="40" as="geometry" />
        </mxCell>
        <mxCell id="xeTfKK4KIoF18XnCmDiO-4" value="" style="endArrow=none;html=1;rounded=0;exitX=0.5;exitY=1;exitDx=0;exitDy=0;entryX=0.5;entryY=0;entryDx=0;entryDy=0;" parent="1" source="Z6PvU_8tH3VTfmL3WVzz-60" target="xeTfKK4KIoF18XnCmDiO-3" edge="1">
          <mxGeometry relative="1" as="geometry">
            <mxPoint x="-1030.9299999999998" y="521.86" as="sourcePoint" />
            <mxPoint x="-870.93" y="521.86" as="targetPoint" />
          </mxGeometry>
        </mxCell>
        <mxCell id="xeTfKK4KIoF18XnCmDiO-9" value="Country_Code" style="ellipse;shape=doubleEllipse;margin=3;whiteSpace=wrap;html=1;align=center;" parent="1" vertex="1">
          <mxGeometry x="-15.930000000000007" y="638.5" width="92.5" height="35" as="geometry" />
        </mxCell>
        <mxCell id="xeTfKK4KIoF18XnCmDiO-12" value="" style="endArrow=none;html=1;rounded=0;exitX=0;exitY=1;exitDx=0;exitDy=0;entryX=1;entryY=0;entryDx=0;entryDy=0;" parent="1" source="CQ-1AIOBtnm9xRJfX0xp-7" target="xeTfKK4KIoF18XnCmDiO-9" edge="1">
          <mxGeometry relative="1" as="geometry">
            <mxPoint x="-106.93" y="691.86" as="sourcePoint" />
            <mxPoint x="53.06999999999999" y="691.86" as="targetPoint" />
          </mxGeometry>
        </mxCell>
        <mxCell id="xeTfKK4KIoF18XnCmDiO-14" value="on board" style="shape=rhombus;perimeter=rhombusPerimeter;whiteSpace=wrap;html=1;align=center;fillColor=#BFFFD5;" parent="1" vertex="1">
          <mxGeometry x="-216.18" y="911.86" width="69.25" height="46.16" as="geometry" />
        </mxCell>
        <mxCell id="xeTfKK4KIoF18XnCmDiO-15" value="has" style="shape=rhombus;perimeter=rhombusPerimeter;whiteSpace=wrap;html=1;align=center;fillColor=#BFFFD5;" parent="1" vertex="1">
          <mxGeometry x="-277.69" y="1046.77" width="60.76" height="49.83" as="geometry" />
        </mxCell>
        <mxCell id="xeTfKK4KIoF18XnCmDiO-18" value="" style="endArrow=none;html=1;rounded=0;exitX=0.625;exitY=0.991;exitDx=0;exitDy=0;entryX=1;entryY=0.5;entryDx=0;entryDy=0;exitPerimeter=0;" parent="1" source="CQ-1AIOBtnm9xRJfX0xp-7" target="xeTfKK4KIoF18XnCmDiO-14" edge="1">
          <mxGeometry relative="1" as="geometry">
            <mxPoint x="333.07000000000005" y="801.86" as="sourcePoint" />
            <mxPoint x="493.07000000000005" y="801.86" as="targetPoint" />
            <Array as="points">
              <mxPoint x="137.07" y="931.86" />
            </Array>
          </mxGeometry>
        </mxCell>
        <mxCell id="5ejDw9BHLHy-XRJ7RD5X-3" value="0-n" style="edgeLabel;html=1;align=center;verticalAlign=middle;resizable=0;points=[];" parent="xeTfKK4KIoF18XnCmDiO-18" vertex="1" connectable="0">
          <mxGeometry x="-0.5531" y="1" relative="1" as="geometry">
            <mxPoint as="offset" />
          </mxGeometry>
        </mxCell>
        <mxCell id="xeTfKK4KIoF18XnCmDiO-19" value="" style="endArrow=none;html=1;rounded=0;exitX=0.75;exitY=1;exitDx=0;exitDy=0;entryX=1;entryY=0.5;entryDx=0;entryDy=0;" parent="1" source="CQ-1AIOBtnm9xRJfX0xp-7" target="xeTfKK4KIoF18XnCmDiO-15" edge="1">
          <mxGeometry relative="1" as="geometry">
            <mxPoint x="3.069999999999993" y="881.86" as="sourcePoint" />
            <mxPoint x="163.07" y="881.86" as="targetPoint" />
            <Array as="points">
              <mxPoint x="150.07" y="1071.86" />
            </Array>
          </mxGeometry>
        </mxCell>
        <mxCell id="5ejDw9BHLHy-XRJ7RD5X-2" value="1-n" style="edgeLabel;html=1;align=center;verticalAlign=middle;resizable=0;points=[];" parent="xeTfKK4KIoF18XnCmDiO-19" vertex="1" connectable="0">
          <mxGeometry x="-0.7929" relative="1" as="geometry">
            <mxPoint as="offset" />
          </mxGeometry>
        </mxCell>
        <mxCell id="xeTfKK4KIoF18XnCmDiO-20" value="" style="endArrow=none;html=1;rounded=0;exitX=1;exitY=0.5;exitDx=0;exitDy=0;entryX=0;entryY=0.5;entryDx=0;entryDy=0;" parent="1" source="Z6PvU_8tH3VTfmL3WVzz-48" target="xeTfKK4KIoF18XnCmDiO-15" edge="1">
          <mxGeometry relative="1" as="geometry">
            <mxPoint x="-343.46" y="811.86" as="sourcePoint" />
            <mxPoint x="-183.46" y="811.86" as="targetPoint" />
          </mxGeometry>
        </mxCell>
        <mxCell id="5ejDw9BHLHy-XRJ7RD5X-1" value="1-1" style="edgeLabel;html=1;align=center;verticalAlign=middle;resizable=0;points=[];" parent="xeTfKK4KIoF18XnCmDiO-20" vertex="1" connectable="0">
          <mxGeometry x="-0.7074" y="1" relative="1" as="geometry">
            <mxPoint as="offset" />
          </mxGeometry>
        </mxCell>
        <mxCell id="xeTfKK4KIoF18XnCmDiO-21" value="" style="endArrow=none;html=1;rounded=0;exitX=1;exitY=1;exitDx=0;exitDy=0;entryX=0;entryY=0.5;entryDx=0;entryDy=0;" parent="1" source="Z6PvU_8tH3VTfmL3WVzz-135" target="xeTfKK4KIoF18XnCmDiO-14" edge="1">
          <mxGeometry relative="1" as="geometry">
            <mxPoint x="-426.93" y="901.86" as="sourcePoint" />
            <mxPoint x="-266.93" y="901.86" as="targetPoint" />
          </mxGeometry>
        </mxCell>
        <mxCell id="tR4aqdJXtH1gXFBSBeib-1" value="m..k" style="edgeLabel;html=1;align=center;verticalAlign=middle;resizable=0;points=[];" parent="xeTfKK4KIoF18XnCmDiO-21" vertex="1" connectable="0">
          <mxGeometry x="-0.6806" y="-1" relative="1" as="geometry">
            <mxPoint as="offset" />
          </mxGeometry>
        </mxCell>
        <mxCell id="xeTfKK4KIoF18XnCmDiO-22" value="has" style="shape=rhombus;perimeter=rhombusPerimeter;whiteSpace=wrap;html=1;align=center;fillColor=#BFFFD5;" parent="1" vertex="1">
          <mxGeometry x="45.56999999999999" y="112.96000000000001" width="75" height="54.09" as="geometry" />
        </mxCell>
        <mxCell id="xeTfKK4KIoF18XnCmDiO-23" value="" style="endArrow=none;html=1;rounded=0;exitX=1;exitY=0.5;exitDx=0;exitDy=0;entryX=0.5;entryY=0;entryDx=0;entryDy=0;" parent="1" source="xeTfKK4KIoF18XnCmDiO-22" target="CQ-1AIOBtnm9xRJfX0xp-7" edge="1">
          <mxGeometry relative="1" as="geometry">
            <mxPoint x="-636.9300000000001" y="391.86" as="sourcePoint" />
            <mxPoint x="73.07" y="481.86" as="targetPoint" />
          </mxGeometry>
        </mxCell>
        <mxCell id="5ejDw9BHLHy-XRJ7RD5X-5" value="0-n" style="edgeLabel;html=1;align=center;verticalAlign=middle;resizable=0;points=[];" parent="xeTfKK4KIoF18XnCmDiO-23" vertex="1" connectable="0">
          <mxGeometry x="0.3748" y="-1" relative="1" as="geometry">
            <mxPoint as="offset" />
          </mxGeometry>
        </mxCell>
        <mxCell id="xeTfKK4KIoF18XnCmDiO-24" value="" style="endArrow=none;html=1;rounded=0;exitX=1;exitY=0.5;exitDx=0;exitDy=0;entryX=0;entryY=0.5;entryDx=0;entryDy=0;" parent="1" source="Z6PvU_8tH3VTfmL3WVzz-51" target="xeTfKK4KIoF18XnCmDiO-22" edge="1">
          <mxGeometry relative="1" as="geometry">
            <mxPoint x="-636.9300000000001" y="391.86" as="sourcePoint" />
            <mxPoint x="-476.93" y="391.86" as="targetPoint" />
          </mxGeometry>
        </mxCell>
        <mxCell id="tR4aqdJXtH1gXFBSBeib-4" value="0..m" style="edgeLabel;html=1;align=center;verticalAlign=middle;resizable=0;points=[];" parent="xeTfKK4KIoF18XnCmDiO-24" vertex="1" connectable="0">
          <mxGeometry x="-0.8475" y="-1" relative="1" as="geometry">
            <mxPoint as="offset" />
          </mxGeometry>
        </mxCell>
        <mxCell id="5ejDw9BHLHy-XRJ7RD5X-6" value="malfunction" style="ellipse;whiteSpace=wrap;html=1;align=center;" parent="1" vertex="1">
          <mxGeometry x="-1122.02" y="238.11" width="68.19" height="30" as="geometry" />
        </mxCell>
        <mxCell id="5ejDw9BHLHy-XRJ7RD5X-7" value="" style="endArrow=none;html=1;rounded=0;exitX=1;exitY=0.5;exitDx=0;exitDy=0;entryX=0.5;entryY=0;entryDx=0;entryDy=0;" parent="1" source="Z6PvU_8tH3VTfmL3WVzz-49" target="5ejDw9BHLHy-XRJ7RD5X-6" edge="1">
          <mxGeometry relative="1" as="geometry">
            <mxPoint x="-1171.9299999999998" y="301.86" as="sourcePoint" />
            <mxPoint x="-1091.9299999999998" y="241.86" as="targetPoint" />
          </mxGeometry>
        </mxCell>
        <mxCell id="5ejDw9BHLHy-XRJ7RD5X-9" value="status" style="ellipse;whiteSpace=wrap;html=1;align=center;" parent="1" vertex="1">
          <mxGeometry x="-1280" y="70" width="60" height="27.04" as="geometry" />
        </mxCell>
        <mxCell id="5ejDw9BHLHy-XRJ7RD5X-10" value="" style="endArrow=none;html=1;rounded=0;exitX=1;exitY=0.5;exitDx=0;exitDy=0;entryX=0.25;entryY=0;entryDx=0;entryDy=0;" parent="1" source="5ejDw9BHLHy-XRJ7RD5X-9" target="Z6PvU_8tH3VTfmL3WVzz-51" edge="1">
          <mxGeometry relative="1" as="geometry">
            <mxPoint x="-1036.9299999999998" y="101.86" as="sourcePoint" />
            <mxPoint x="-876.93" y="101.86" as="targetPoint" />
          </mxGeometry>
        </mxCell>
        <mxCell id="5ejDw9BHLHy-XRJ7RD5X-11" value="status" style="ellipse;whiteSpace=wrap;html=1;align=center;" parent="1" vertex="1">
          <mxGeometry x="-594.4299999999998" y="578.3899999999999" width="50" height="18.75" as="geometry" />
        </mxCell>
        <mxCell id="5ejDw9BHLHy-XRJ7RD5X-12" value="" style="endArrow=none;html=1;rounded=0;exitX=1;exitY=0.5;exitDx=0;exitDy=0;entryX=0;entryY=0.25;entryDx=0;entryDy=0;" parent="1" source="5ejDw9BHLHy-XRJ7RD5X-11" target="CQ-1AIOBtnm9xRJfX0xp-5" edge="1">
          <mxGeometry relative="1" as="geometry">
            <mxPoint x="-706.9300000000001" y="541.86" as="sourcePoint" />
            <mxPoint x="-546.9300000000001" y="541.86" as="targetPoint" />
          </mxGeometry>
        </mxCell>
        <mxCell id="5ejDw9BHLHy-XRJ7RD5X-13" value="end_date" style="ellipse;whiteSpace=wrap;html=1;align=center;" parent="1" vertex="1">
          <mxGeometry x="-850.9300000000001" y="403.38" width="61.5" height="33.86" as="geometry" />
        </mxCell>
        <mxCell id="5ejDw9BHLHy-XRJ7RD5X-15" value="" style="endArrow=none;html=1;rounded=0;entryX=0.05;entryY=0.74;entryDx=0;entryDy=0;entryPerimeter=0;" parent="1" source="Z6PvU_8tH3VTfmL3WVzz-60" target="5ejDw9BHLHy-XRJ7RD5X-13" edge="1">
          <mxGeometry relative="1" as="geometry">
            <mxPoint x="-956.93" y="351.86" as="sourcePoint" />
            <mxPoint x="-796.9300000000001" y="351.86" as="targetPoint" />
          </mxGeometry>
        </mxCell>
        <mxCell id="FofdK1Np7jsSMPXIso7f-2" value="Name" style="ellipse;whiteSpace=wrap;html=1;align=center;" parent="1" vertex="1">
          <mxGeometry x="-593.63" y="865.59" width="66.7" height="29.84" as="geometry" />
        </mxCell>
        <mxCell id="FofdK1Np7jsSMPXIso7f-3" value="" style="endArrow=none;html=1;rounded=0;exitX=1;exitY=0;exitDx=0;exitDy=0;" parent="1" source="FofdK1Np7jsSMPXIso7f-2" target="CQ-1AIOBtnm9xRJfX0xp-9" edge="1">
          <mxGeometry relative="1" as="geometry">
            <mxPoint x="-556.9300000000001" y="851.86" as="sourcePoint" />
            <mxPoint x="-396.93" y="851.86" as="targetPoint" />
          </mxGeometry>
        </mxCell>
        <mxCell id="FofdK1Np7jsSMPXIso7f-6" value="ID" style="ellipse;whiteSpace=wrap;html=1;align=center;fontStyle=4;fillColor=#0066CC;" parent="1" vertex="1">
          <mxGeometry x="-917.3699999999999" y="891.3" width="52.89" height="33.08" as="geometry" />
        </mxCell>
        <mxCell id="FofdK1Np7jsSMPXIso7f-7" value="" style="endArrow=none;html=1;rounded=0;exitX=1;exitY=0.5;exitDx=0;exitDy=0;entryX=0;entryY=0.5;entryDx=0;entryDy=0;" parent="1" source="FofdK1Np7jsSMPXIso7f-6" target="Z6PvU_8tH3VTfmL3WVzz-135" edge="1">
          <mxGeometry relative="1" as="geometry">
            <mxPoint x="-936.93" y="791.86" as="sourcePoint" />
            <mxPoint x="-776.9300000000001" y="791.86" as="targetPoint" />
          </mxGeometry>
        </mxCell>
        <mxCell id="FofdK1Np7jsSMPXIso7f-8" value="country code" style="ellipse;whiteSpace=wrap;html=1;align=center;" parent="1" vertex="1">
          <mxGeometry x="-1577.79" y="675.5799999999999" width="60" height="30" as="geometry" />
        </mxCell>
        <mxCell id="FofdK1Np7jsSMPXIso7f-9" value="" style="endArrow=none;html=1;rounded=0;entryX=0;entryY=0.5;entryDx=0;entryDy=0;exitX=1;exitY=0;exitDx=0;exitDy=0;" parent="1" source="FofdK1Np7jsSMPXIso7f-8" target="k8y80EG09j7Mzg2zByGi-157" edge="1">
          <mxGeometry relative="1" as="geometry">
            <mxPoint x="-1653.47" y="609.5300000000001" as="sourcePoint" />
            <mxPoint x="-1493.47" y="609.5300000000001" as="targetPoint" />
          </mxGeometry>
        </mxCell>
        <mxCell id="aH8TJcvnFRqIlCfttIeH-2" value="MDate" style="ellipse;whiteSpace=wrap;html=1;align=center;" vertex="1" parent="1">
          <mxGeometry x="-1260" y="240.63" width="70" height="26.22" as="geometry" />
        </mxCell>
        <mxCell id="aH8TJcvnFRqIlCfttIeH-3" value="" style="endArrow=none;html=1;rounded=0;exitX=1;exitY=0.5;exitDx=0;exitDy=0;entryX=0;entryY=1;entryDx=0;entryDy=0;" edge="1" parent="1" source="aH8TJcvnFRqIlCfttIeH-2" target="Z6PvU_8tH3VTfmL3WVzz-49">
          <mxGeometry relative="1" as="geometry">
            <mxPoint x="-1190" y="260" as="sourcePoint" />
            <mxPoint x="-1030" y="260" as="targetPoint" />
          </mxGeometry>
        </mxCell>
        <mxCell id="aH8TJcvnFRqIlCfttIeH-4" value="Brand" style="ellipse;whiteSpace=wrap;html=1;align=center;" vertex="1" parent="1">
          <mxGeometry x="-507.26" y="532.98" width="50.56" height="23.11" as="geometry" />
        </mxCell>
        <mxCell id="aH8TJcvnFRqIlCfttIeH-5" value="" style="endArrow=none;html=1;rounded=0;exitX=0.5;exitY=1;exitDx=0;exitDy=0;entryX=0.5;entryY=0;entryDx=0;entryDy=0;" edge="1" parent="1" source="aH8TJcvnFRqIlCfttIeH-4" target="CQ-1AIOBtnm9xRJfX0xp-5">
          <mxGeometry relative="1" as="geometry">
            <mxPoint x="-510" y="610" as="sourcePoint" />
            <mxPoint x="-350" y="610" as="targetPoint" />
          </mxGeometry>
        </mxCell>
      </root>
    </mxGraphModel>
  </diagram>
</mxfile>
